<svg width="831" height="340" viewBox="0 0 831 340" fill="none" xmlns="http://www.w3.org/2000/svg"><g opacity=".15" filter="url(#filter0_f)"><path d="M660.62 300.274c-2.403-1.394-4.943-2.641-7.483-3.887-17.379-11.229-22.945-33.198-32.616-51.011-10.58-19.198-25.689-36.001-43.483-48.708-31.189-22.181-69.23-30.557-106.811-25.503-.636.098-1.347.127-1.983.225-1.347.127-2.688.397-3.961.592-1.768.287-2.796 1.255-3.32 2.416-30.785-8.394-62.434-15.257-94.24-13.504a352.773 352.773 0 0114.203-6.071c28.144-11.563 57.009-21.092 86.368-28.933 4.048 10.575 14.097 19.976 23.147 25.718 1.023.669 2.188 1.332 3.278 1.927 11.352 6.358 24.273 9.234 37.252 8.195 1.063-.115 1.87-1.288 1.052-2.178-.818-.891-1.562-1.714-2.38-2.605-13.377-14.385-27.817-28.655-46.152-35.291 11.764-2.981 23.613-5.609 35.462-8.238.573 1.897 2.119 3.185 4.051 3.46 4.452 6.432 13.908 8.03 21.078 9.439 22.661 4.463 45.834 5.702 68.991 4.737 48.802-1.964 96.613-12.781 144.85-20.058 3.466-.5 5.138-3.202 4.747-5.89-.182-.989-.579-2.039-1.323-2.862a3.345 3.345 0 00-1.324-1.084c-69.85-46.185-169.355-68.648-235.711-3.335-1.097 1.042-1.479 2.196-1.507 3.265a10.54 10.54 0 00-1.706 1.85 12.814 12.814 0 00-1.467 2.48c-2.892.619-5.717 1.164-8.609 1.782 22.213-17.577 23.893-57.779 28.204-83.646.233-1.29-1.289-2.01-2.25-1.116-1.234 1.19-2.467 2.38-3.627 3.638-5.848 3.232-11.021 7.362-15.608 11.894-2.257 2.3-4.372 4.593-6.402 7.24l-.068.074c-4.338 5.446-8.016 11.363-11.258 17.547-.528 1.018-1.057 2.036-1.512 3.123-7.041 14.453-14.002 30.896-12.928 47.217-21.772 5.391-43.374 11.486-64.578 18.632 1.376-1.196 2.678-2.46 3.911-3.65 19.066-18.015 34.496-39.792 46.961-62.797 25.179-46.874 37.484-99.047 49.248-150.485.114-.717.37-1.439.484-2.155.979-4.026-4.174-8.365-7.76-5.511-18.98 14.809-38.306 29.846-53.866 48.355-4.485 5.31-8.744 10.967-12.86 16.617-9.233 12.98-17.438 26.77-24.859 40.6-.466.802-.864 1.53-1.256 2.4-10.471-37.987-33.087-71.84-63.678-96.892l-.222-.205c-4.851-3.924-11.423 2.612-7.838 6.874 2.986 23.286.301 47.093-1.606 70.796-1.889 22.35-2.999 44.598 1.993 66.448 4.732 20.652 16.631 39.012 29.871 55.324 4.118 5.165 11.512 17.594 19.659 22.093-17.738 6.645-35.237 13.921-52.27 22.174-1.745.856-16.113 8.143-17.648 8.919-22.791 11.98-44.731 25.703-65.529 41.299-3.456 2.564-6.696 5.189-10.078 7.821 1.347-1.907 2.621-3.881 3.764-5.565a304.868 304.868 0 0029.705-52.97c.978-2.246 1.814-4.487 2.792-6.734.802-1.314 1.382-2.832 1.746-4.413 11.888-30.381 18.804-62.334 20.861-94.796 2.656-22.739 4.223-47.851 17.333-67.112.137-.148.131-.29.194-.506.205-.222.415-.302.619-.524 1.171-.974 1.257-2.4.644-3.513-.619-1.255-2.074-2.049-3.449-.853-16.2 13.128-31.429 27.425-45.624 42.675a9287.659 9287.659 0 01-3.206 3.478 285.042 285.042 0 00-8.647 9.825l-.75.814c-17.345 20.148-33.809 40.972-42.91 66.256-7.441 20.519-12.876 43.16-15.094 66.165-12.657-26.725-28.303-53.468-46.996-76.313-28.934-35.296-71.669-61.55-118.7-52.616-1.626.282-2.371 1.238-2.61 2.386-.24 1.149.096 2.415.777 3.454.13 1.49.97 2.948 2.84 3.44 10.944 3.243 22.086 7.902 29.68 16.409.744.823 1.494 1.788 2.244 2.753a37.546 37.546 0 012.504 3.951c3.373 6.121 5.564 12.932 8.17 19.441 1.181 2.868 2.436 5.804 3.97 8.587 11.868 21.208 27.432 38.703 36.942 61.433 8.182 19.725 17.302 36.208 34.208 49.877 12.862 10.351 26.877 19.301 41.558 27.086 1.097.737 2.261 1.4 3.489 1.847 3.704 1.909 7.403 3.676 11.244 5.437-19.851 19.755-37.628 41.559-53.775 65.002-10.428 15.164-20.781 30.396-30.839 45.901 1.195-3.964 2.242-8.063 3.3-11.879 4.478-16.268 6.672-32.725 6.076-49.564-.686-22.671-5.684-44.663-12.234-66.306-4.944-29.608-20.26-57.005-28.808-85.965-.51-2.114-1.089-4.153-1.674-6.335-.011-.284-.09-.494-.17-.704-.011-.284-.164-.563-.176-.847-.017-.426-.244-.772-.471-1.119-.738-2.459-4.426-2.163-4.967.35-.307 1.222-.682 2.519-.984 3.883-.7 2.093-1.4 4.186-2.025 6.347-6.787 19.068-9.976 39.125-13.313 59.045-.866 5.088-1.658 10.245-2.307 15.395-2.234 17.242-3.326 34.578-2.133 52.104.706 10.644 2.123 21.259 4.177 31.775-.802-.464-1.534-1.003-2.262-1.4-34.468-20.55-79.873-17.233-118.53-19.606-2.711-.172-3.076 3.188-1.315 4.537l.295.273.148.136c.148.136.296.272.511.334 15.937 7.163 29.293 17.422 39.983 30.425 4.186 5.091 7.963 10.626 11.33 16.605.46.834.92 1.669 1.45 2.43 9.466 16.256 19.293 27.231 37.326 35.231 16.875 7.48 35.154 12.695 53.229 16.353 5.165 1.065 9.534 1.808 13.143 1.302l-3.804 6.349c-.733 1.24-6.056 10.57-6.585 11.588-4.912 8.886-9.683 17.766-14.09 26.845-6.916 14.021-13.03 28.507-18.132 43.378-1.324-17.236-12.9-31.055-25.04-42.93-12.207-11.801-26.949-22.928-44.862-18.907-.21.079-.42.159-.489.233-.284.012-.562.166-.84.32-.211.08-.353.086-.563.166-.21.08-.42.16-.49.234-.21.08-.352.086-.562.166-1.54.633-.66 3.087.88 2.453.068-.074.21-.08.279-.154 6.216 2.445 11.289 6.574 15.543 11.591 4.175 4.807 7.736 10.28 11.087 15.833 2.663 4.372 5.395 8.669 8.11 12.541 8.656 11.949 19.955 22.365 34.853 24.874-9.5 29.571-14.609 60.452-13.08 91.839.27 5.041 8.01 4.647 7.813-.325-1.387-27.836 2.532-54.612 10.048-80.399 2.738 2.661 5.544 5.248 8.282 7.909 7.26 9.019 19.038 11.801 30.243 14.464 15.37 3.629 30.117 2.302 45.603-.122 1.625-.282 3.25-.563 4.807-.77 14.986-2.475 29.813-5.37 43.88-11.293 9.167-3.869 17.801-8.641 26.207-13.759 2.391 4.668 4.923 9.33 7.377 13.781 2.373 4.242 4.747 8.484 7.053 12.799 8.609 16.149 16.234 32.624 21.422 50.411 1.072 3.726 2.151 7.595 3.007 11.259 1.89 8.176 2.932 16.529 1.423 25.13-1.378 8.312-3.852 15.887-3.657 24.417.085 2.131 3.051 3.36 4.478 1.664 16.907-20.416 22.776-50.048 24.962-75.684 1.061-12.711 1.191-25.595.616-38.308-.22-3.762-.372-7.598-.592-11.361 20.622 14.083 41.438 27.66 62.328 41.305 10.885 7.16 21.839 14.246 32.729 21.548 2.631 1.74 5.763-.027 7.014-2.57.398-.728.58-1.518.62-2.303.009-8.752-3.33-15.8-7.754-23.3-5.793-9.72-9.25-19.752-13.434-30.179-8.13-20.226-20.318-38.716-35.593-54.303-26.255-26.941-69.848-53.301-109.287-48.455l-.142.006c-19.379-11.431-40.936-18.573-63.495-20.478-15.848-1.332-34.419-1.34-49.974 4.716 12.617-20.948 26.115-41.221 39.34-61.198 4.901-7.391 9.95-14.646 15.004-21.759 1.24 11.547 6.89 24.831 10.03 30.464 5.9 10.641 14.444 19.748 24.158 27.882 15.378 12.807 33.587 23.433 48.744 34.257.88.675 1.949.702 2.716.314 1.33-.554 2.2-1.942 1.28-3.611-6.31-10.197-9.175-21.463-11.831-32.808 24.373 15.35 50.542 27.565 79.061 32.637 16.337 2.877 32.924 3.11 49.472 2.349 8.24-.343 16.468-.971 24.623-1.667 13.548-1.063 27.095-2.126 40.637-3.331 13.332-1.125 29.199-4.704 42.125.094 5.92 2.172 10.589-5.707 5.265-8.972-.148-.136-.29-.13-.437-.266-28.243-14.264-48.225-39.118-73.643-57.484-22.343-16.217-48.199-31.291-74.131-41.097-23.982-9.104-50.275-11.85-75.749-13.706-23.832-1.71-47.762-.499-70.534 6.57 17.857-21.593 37.486-41.553 60.12-59.289 22.703-17.811 47.058-33.413 72.492-46.926.069-.074.279-.154.489-.234a10.75 10.75 0 00-1.041 2.463c-.176.932-.211 1.858-.171 2.853.486 6.882 7.683 14.338 11.415 18.736 10.241 12.452 21.38 24.227 35.032 32.979 7.227 4.609 15.067 8.551 23.033 12.061 10.863 4.813 21.983 8.903 32.693 13.438 2.028.911 4.16-.956 3.802-2.792-.09-.494-.323-.982-.908-1.385-16.935-14.379-23.264-34.039-37.567-50.235-14.081-15.993-34.615-24.244-53.989-31.975-.29-.131-.864-.249-1.722-.356 4.632-1.616 9.201-3.016 10.968-3.303 13.872-1.859 27.817-1.872 41.603-.525 1.858.207 6.665 1.216 7.381 1.329 17.893 2.669 38.341 14.127 51.661 27.091-.909.394-1.659 1.208-2.177 2.51-8.481 22.981-3.441 55.005 6.814 76.778 3.106 6.559 7.4 12.571 12.109 18.281 5.975 7.151 12.576 13.92 18.461 20.577 12.445 14.21 24.964 28.489 37.41 42.699 1.192 1.374 2.63 1.741 3.971 1.471 2.472-.459 4.581-2.895 4.764-5.464 1.117-25.663 2.24-51.184 2.005-76.861-.01-3.842-.156-7.536-.507-11.008 12.902 7.787 26.39 14.198 41.572 18.475 7.989 2.299 16.177 4.235 24.365 6.17 9.989 2.501 19.904 4.934 29.643 8.299 4.619 1.658 9.17 3.389 13.665 5.479a45.972 45.972 0 008.425 4.345c5.858 2.388 10.441-5.843 4.544-9.226zM118.698 406.977c.682-.74 3.587-2.854 4.769-3.544.978-.467 2.024-1.009 2.512-1.243 17.227-6.98 40.116-5.728 56.725-3.148 15.751 2.474 30.683 7.615 44.705 14.929-1.166 1.116-1.888 2.64-1.752 4.271-8.912 19.3-5.975 39.528 1.263 58.794-22.866-.683-45.691-7.487-68.545-9.665-22.786-2.252-44.325 1.848-64.223 11.43-5.03 2.344-9.9 5.109-14.76 8.158 8.146-24.248 19.24-47.695 31.859-70.422.529-1.018 3.417-5.336 4.918-6.964.818-.888 1.705-1.85 2.529-2.596zM442.38 177.663a927.712 927.712 0 0115.313 3.987c-.081 3.347 1.271 6.92 2.531 9.998-5.181-5.049-11.276-9.847-17.844-13.985z" fill="#3B5E82"/></g><defs><filter id="filter0_f" x="-237" y="-302" width="1067.3" height="1078.52" filterUnits="userSpaceOnUse" color-interpolation-filters="sRGB"><feFlood flood-opacity="0" result="BackgroundImageFix"/><feBlend in="SourceGraphic" in2="BackgroundImageFix" result="shape"/><feGaussianBlur stdDeviation="10" result="effect1_foregroundBlur"/></filter></defs></svg>