<svg width="24" height="24" viewBox="0 0 24 24" fill="none" xmlns="http://www.w3.org/2000/svg"><circle cx="8.5" cy="21.5" r="1.5" stroke="#3B5E82" stroke-width="2" stroke-linecap="round" stroke-linejoin="round"/><circle cx="18" cy="21.5" r="1.5" stroke="#3B5E82" stroke-width="2" stroke-linecap="round" stroke-linejoin="round"/><path opacity=".4" d="M10 12a1 1 0 100 2v-2zm10.5 2a1 1 0 100-2v2zm-11-5a1 1 0 000 2V9zm12 2a1 1 0 100-2v2zM10 14h10.5v-2H10v2zm-.5-3h12V9h-12v2z" fill="#3B5E82"/><path d="M1 1h2.75L7 16.5h13l3-11H8.25" stroke="#3B5E82" stroke-width="2" stroke-linecap="round" stroke-linejoin="round"/></svg>