<svg width="253" height="37" viewBox="0 0 253 37" fill="none" xmlns="http://www.w3.org/2000/svg"><path class="color" fill-rule="evenodd" clip-rule="evenodd" d="M72.125 26.497v1.494c0 1.614-.825 2.45-2.415 2.57v.538h11.957c7.068 0 12.487-4.423 12.487-12.073 0-6.036-3.652-12.371-13.43-12.371H69.71v.478h.236c1.943.299 2.179 1.494 2.179 2.869v16.495zm4.653-16.675V8.03H79.9c5.654 0 8.894 4.363 8.894 10.34 0 10.28-6.303 11.295-9.424 11.295-1.885 0-2.592-.836-2.592-1.912V9.822zM121.69 31.1h13.367l.832-5.202h-.535a9.456 9.456 0 01-.653 1.674 3.712 3.712 0 01-1.328 1.72 3.668 3.668 0 01-2.059.672h-3.505c-1.722 0-2.435-.06-2.495-2.451V14.835c0-1.376 0-2.572 2.02-2.87h.238v-.539h-8.377v.538h.238c2.02.3 2.02 1.495 2.02 2.87v13.157c0 1.615-.654 2.452-2.258 2.571v.539h2.495zM97.136 20.993c0 5.228 3.685 10.107 10.105 10.107s10.165-5.46 10.165-10.107c0-4.646-3.21-10.164-10.165-10.164-6.955 0-10.105 4.879-10.105 10.164zm4.339 0c0-4.936 1.724-9.06 5.766-9.06s5.826 4.123 5.826 9.06-1.724 8.887-5.826 8.887c-4.101 0-5.766-4.066-5.766-8.887zm54.329-9.517h-.59c-.059.755-.295.987-.768.813a11.19 11.19 0 00-5.964-1.451c-7.794 0-10.805 4.876-10.805 9.695 0 7.954 5.668 10.567 10.451 10.567s7.381-2.903 8.031-3.948l-.414-.407c-.295.465-2.303 3.252-7.44 3.252-2.775-.058-6.2-2.38-6.2-9.29 0-5.806 3.071-8.825 6.614-8.825a6.575 6.575 0 013.495 1.072 6.415 6.415 0 012.35 2.76 9.02 9.02 0 01.709 1.742h.531v-5.98zm10.025 19.564h8.048l.764-5.202h-.47c-.176.359-.352 1.017-.705 1.675a3.639 3.639 0 01-1.306 1.73 3.54 3.54 0 01-2.043.662h-3.054c-1.704 0-2.409-.06-2.468-2.452v-6.22h2.761c1.645 0 2.409.18 2.585 2.87h.47v-6.936h-.47c-.176 2.691-.94 2.87-2.585 2.87h-2.761v-7.534h4.7c1.762 0 2.761 1.255 3.349 2.392.587 1.136.587 1.016.705 1.375h.528l-1.175-4.844h-14.158v.538h.235c1.997.3 1.997 1.495 1.997 2.87v13.157c0 1.615-.646 2.452-2.232 2.571v.539l7.285-.06zm41.467-4.544v1.495c0 1.674-.651 2.452-2.249 2.571v.539h8.347v-.539c-1.599-.12-2.25-.897-2.25-2.571V14.835c0-1.376 0-2.572 2.013-2.87h.237v-.539h-8.347v.538h.237c2.012.3 2.012 1.495 2.012 2.87v11.662zm15.505-.014v1.5c0 1.679-.65 2.459-2.244 2.579v.54h8.269v-.54c-1.536-.12-2.186-.9-2.186-2.58V12.567h2.895c1.831 0 2.894 1.32 3.484 2.4l.709 1.199h.532l-1.477-4.739h-16.184l-1.417 4.739h.472l.709-1.2c.65-1.08 1.713-2.4 3.485-2.4h2.953v13.917zm22.33-.046l.595 1.494c.653 1.675.297 2.512-1.13 2.631v.539h7.549v-.539c-1.605-.12-2.08-.956-2.734-2.63l-.595-1.495-4.041-10.405-.476-1.196-1.486-4.006h-.357l-6.894 17.161c-.06.24-.179.479-.238.658a3.944 3.944 0 01-1.208 1.287 3.91 3.91 0 01-1.645.627v.538h6.003v-.539c-1.01-.06-2.259-.299-1.902-1.674l.297-.897 1.783-4.484h5.35l1.129 2.93zm-6.003-4.126l2.259-5.501 2.139 5.5h-4.398zm-50.142-9.679l-.714-1.912c-.832-2.092-.416-3.168 1.428-3.347v-.717h-9.695v.717c2.022.18 2.676 1.255 3.45 3.347l.773 1.912 5.174 13.388.595 1.494 1.368 3.586h1.606l8.148-20.44.357-.837a5.077 5.077 0 011.511-1.627 5.041 5.041 0 012.058-.823v-.717h-7.554v.717c1.309.06 2.855.418 2.439 2.092-.119.358-.238.777-.416 1.195l-5.71 14.344-4.818-12.372z" fill="#fff"/><path fill-rule="evenodd" clip-rule="evenodd" d="M45.25.43c5.474 0 15.619 7.918 11.313 18.036-3.358 7.698-14.451 10.778-24.888 11.804l-1.678 3.96-.146.44c-.146.293.073.733 1.751 1.026v.66H20.873l-2.335-5.866C8.539 29.977 2.263 27.85 0 26.678l4.963-3.446c2.773 2.273 7.444 3.886 12.553 4.692L9.123 6.661a11.157 11.157 0 00-1.898-3.299 3.786 3.786 0 00-2.627-1.1h-.73V.356h16.349v1.833c-.95.073-2.19.147-2.628 1.1-.438.953-.146 1.76.438 3.3l7.299 18.256L32.77 6.44l.438-1.54c.51-2.125-1.022-2.712-2.7-2.712V.356h13.355l-11.24 27.568c8.394-1.32 19.123-4.912 19.342-12.758.073-4.692-5.11-7.771-8.904-9.018L45.25.43zM25.398 30.563h-5.984l2.043 5.132h.584a2.476 2.476 0 001.679-1.026l.292-.66 1.386-3.446zm-6.933-2.493a45.7 45.7 0 007.736.513L37.368 1.09H31.31v.513c1.314 0 2.409.587 2.7 1.687a5.375 5.375 0 01-.437 3.226L25.18 27.41h-.876L16.057 6.66c-.584-1.54-.73-2.712-.365-3.519.364-.806 1.167-1.32 2.481-1.54V1.09H4.598v.513c3.503 0 4.525 3.007 5.328 4.986l8.539 21.483z" fill="#8D5287"/></svg>