<svg width="88" height="33" viewBox="0 0 88 33" fill="none" xmlns="http://www.w3.org/2000/svg"><path d="M87.483 25.43c-.486 0-1.216.414-1.46.496-.567.083-1.296-.165-1.701-3.388-.244-1.9 0-3.884.08-5.868 0-.496-5.025.248-5.025 1.818-.081 2.397-.406 4.876.162 7.19 0 .083 0 .083.08.166-2.431.66-4.863-.662-5.755-3.306-.243-.744-.324-1.57-.324-2.397 0-.248.081-1.818.243-2.314a32.93 32.93 0 009.647-3.47c.324-.166 1.135-.58 1.054-1.075-.892-7.025-7.782-5.703-12.565-3.471-1.216.578-1.54.909-1.46 1.735.082.744.892.91 1.54.744.812-.248 1.217-1.157 2.19-1.57 3.161-1.488 4.62.992 5.188 3.801-1.946.827-7.377 1.819-9.242 2.15-.81.165-.972.743-1.135 1.239-.243 1.157-.405 2.314-.405 3.47-.08 1.406-.243 4.133-1.459 4.298-1.216.248-.973-5.206-.973-6.363.081-2.645.325-5.124-.243-7.769-.892-4.132-5.512-3.553-8.836-2.066-1.783-2.066-5.269-1.735-8.43-.826-.811.248-2.838.744-3 1.818-.648 6.364-1.135 13.223-.08 19.587-3.892-1.488-7.215-5.703-8.107-9.918 3.404-.496 6.404-1.818 5.998-6.033-.73-7.272-8.268-7.934-15.077-4.876-.73.33-.973.827-1.216 1.901-.973 3.636-1.622 10.496-.649 16.198.081.413 1.135.992 2.756.992 1.622 0 2.756-.413 2.675-.992-1.702-6.776-.73-14.462.163-17.355 7.052-.661 6.566 6.86 6.485 7.934-.162 1.074-1.54 1.24-1.946.082-.405-1.074-4.54-.247-4.458 1.984.243 8.016 7.863 13.802 15.402 12.645.567-.083 3.81-.91 3.648-1.901-1.784-6.447-1.622-13.389-.973-20 5.107-2.314 2.756 12.892 2.675 16.777 0 .247.73.66 2.594.66 1.702 0 2.432-.165 2.432-.908.08-3.306.162-7.273.162-10.91 0-1.074.081-3.966-.567-5.206 4.053-1.983 3.647 5.703 3.566 7.19 0 2.645-.73 6.942 1.378 9.09 1.622 1.654 5.35.745 7.377-1.156.406.496.973.992 1.621 1.322 2.432 1.405 5.837.744 8.755-.413 1.216.992 3.243.91 4.864.496.81-.165 2.27-.661 2.756-1.57.243-.331.081-.662-.405-.662zm-63.23-1.156c-.081-.744-1.135-.744-1.703-.661-1.134.165-1.54 1.488-2.999 2.149-.892.413-2.026.495-2.756.248-2.189-.744-2.675-2.562-3-4.546-.405-2.892-.243-6.694.73-9.504.243-.744-3.81-1.735-4.783.661-1.702 4.38-2.35 11.322 1.46 14.628 3.08 2.645 7.863 1.075 11.267-1.074.649-.413 1.865-1.322 1.784-1.9zM4.634 7.58C6.58 7 6.823 6.67 6.823 6.091c0-1.405.162-2.81.891-3.885.973-.082 2.351.248 3.486.496 1.297.248 2.189-.083 3-.496.08 0 2.107-1.322 1.297-1.487C9.66-1.098 2.04.306 2.04 7.496c0 .579.73.662 2.594.083z" fill="#8D9BB2"/><path d="M6.905 10.225c4.702-1.074 10.376-1.818 12.322 3.14.405.992.567 2.067.567 3.14 0 .91-.243 1.654-1.621 1.406-.568-.083-2.027-.827-2.838-.33-.81.495-.648 2.479.163 2.396 2.756-.165 8.917-.992 9.322-4.71.243-2.397-.162-4.546-2.432-6.364C18.335 5.597 7.31 7.993.825 10.06c-.73.248-1.054 1.074-.648 1.487.486.413 1.702-.082 1.62 0-.567 4.05-.567 12.645-.161 16.86 0 .33.567.495 2.188.495 1.622 0 2.838-.413 2.757-1.074-.163-5.29-.649-12.148.324-17.603z" fill="#8D9BB2"/></svg>