<svg width="26" height="15" viewBox="0 0 26 15" fill="none" xmlns="http://www.w3.org/2000/svg"><path fill-rule="evenodd" clip-rule="evenodd" d="M12.83 13.938h1.5s.442-.088.706-.264c.177-.265.177-.618.177-.618s0-1.94.882-2.293c.882-.265 2.029 1.94 3.264 2.734.97.618 1.676.53 1.676.53l3.264-.089s1.765-.088.882-1.5c-.088-.088-.44-.97-2.47-2.822-2.029-1.941-1.764-1.588.706-4.94 1.5-2.03 2.117-3.265 1.94-3.794-.176-.53-1.322-.353-1.322-.353h-3.706s-.264 0-.44.089c-.177.088-.354.44-.354.44s-.617 1.589-1.411 2.912c-1.676 2.823-2.294 3-2.558 2.823-.618-.441-.441-1.676-.441-2.47 0-2.735.44-3.882-.794-4.147C13.89.088 13.625 0 12.566 0c-1.323 0-2.47 0-3.087.353-.441.176-.706.706-.53.706.265 0 .794.176 1.059.529.353.53.353 1.676.353 1.676s.176 3.176-.53 3.617c-.529.265-1.146-.265-2.646-2.823-.794-1.323-1.323-2.735-1.323-2.735s-.089-.264-.265-.44c-.265-.177-.53-.265-.53-.265H1.54s-.53 0-.706.264c-.176.177 0 .618 0 .618s2.735 6.44 5.91 9.704c2.824 2.999 6.088 2.734 6.088 2.734z" fill="#8D9BB2"/></svg>