<svg width="22" height="22" viewBox="0 0 22 22" fill="none" xmlns="http://www.w3.org/2000/svg"><path d="M10.586 0C7.675 0 7.322 0 6.263.088c-1.146.088-1.852.265-2.558.53-.706.264-1.323.617-1.852 1.235-.618.617-.97 1.146-1.235 1.852-.265.706-.442 1.412-.53 2.558C0 7.323 0 7.675 0 10.586c0 2.911 0 3.264.088 4.323.088 1.147.265 1.852.53 2.558.264.706.617 1.323 1.235 1.853.617.617 1.146.97 1.852 1.235.706.264 1.412.44 2.558.529 1.06.088 1.412.088 4.323.088 2.911 0 3.264 0 4.323-.088 1.147-.088 1.852-.265 2.558-.53.706-.264 1.323-.617 1.853-1.234.617-.618.97-1.147 1.235-1.853.264-.706.44-1.411.529-2.558.088-1.059.088-1.412.088-4.323 0-2.911 0-3.264-.088-4.323-.088-1.146-.265-1.852-.53-2.558-.264-.706-.617-1.323-1.234-1.852-.618-.618-1.147-.97-1.853-1.235-.706-.265-1.411-.442-2.558-.53C13.85 0 13.497 0 10.586 0z" fill="#8D9BB2"/><path d="M10.587 5.114c-3 0-5.47 2.47-5.47 5.47 0 3 2.47 5.47 5.47 5.47 3 0 5.47-2.47 5.47-5.47 0-3-2.47-5.47-5.47-5.47zm0 8.998a3.54 3.54 0 01-3.529-3.528 3.54 3.54 0 013.529-3.529 3.54 3.54 0 013.528 3.529 3.54 3.54 0 01-3.528 3.529zm5.644-7.937a1.235 1.235 0 100-2.47 1.235 1.235 0 000 2.47z" fill="#fff"/></svg>