<svg width="373" height="335" viewBox="0 0 373 335" fill="none" xmlns="http://www.w3.org/2000/svg"><path d="M319.053 60.256c-16.98-28.929-25.471-43.394-39.322-51.325C265.879 1 249.107 1 215.563 1h-58.126c-33.544 0-50.316 0-64.168 7.931-13.851 7.931-22.342 22.396-39.322 51.325l-27.293 46.5C9.266 136.38.572 151.192.572 167.5s8.694 31.12 26.082 60.744l27.293 46.5c16.98 28.929 25.47 43.394 39.322 51.325C107.121 334 123.893 334 157.437 334h58.126c33.544 0 50.316 0 64.168-7.931 13.851-7.931 22.342-22.396 39.322-51.325l27.293-46.5c17.388-29.624 26.082-44.436 26.082-60.744s-8.694-31.12-26.082-60.744l-27.293-46.5z" stroke="#fff" stroke-miterlimit="10"/></svg>