<svg width="24" height="24" viewBox="0 0 24 24" fill="none" xmlns="http://www.w3.org/2000/svg"><path class="fill" d="M12 0C8.7 0 8.3 0 7.1.1 5.8.2 5 .4 4.2.7c-.8.3-1.5.7-2.1 1.4C1.4 2.8 1 3.4.7 4.2.4 5 .2 5.8.1 7.1 0 8.3 0 8.7 0 12c0 3.3 0 3.7.1 4.9.1 1.3.3 2.1.6 2.9.3.8.7 1.5 1.4 2.1.7.7 1.3 1.1 2.1 1.4.8.3 1.6.5 2.9.6 1.2.1 1.6.1 4.9.1 3.3 0 3.7 0 4.9-.1 1.3-.1 2.1-.3 2.9-.6.8-.3 1.5-.7 2.1-1.4.7-.7 1.1-1.3 1.4-2.1.3-.8.5-1.6.6-2.9.1-1.2.1-1.6.1-4.9 0-3.3 0-3.7-.1-4.9-.1-1.3-.3-2.1-.6-2.9-.3-.8-.7-1.5-1.4-2.1-.7-.7-1.3-1.1-2.1-1.4-.8-.3-1.6-.5-2.9-.6C15.7 0 15.3 0 12 0z" fill="#8D9BB2"/><path d="M12 5.797c-3.4 0-6.2 2.8-6.2 6.2 0 3.4 2.8 6.2 6.2 6.2 3.4 0 6.2-2.8 6.2-6.2 0-3.4-2.8-6.2-6.2-6.2zm0 10.2c-2.2 0-4-1.8-4-4s1.8-4 4-4 4 1.8 4 4-1.8 4-4 4zM18.399 7a1.4 1.4 0 100-2.8 1.4 1.4 0 000 2.8z" fill="#fff"/></svg>