<svg class="mainLines__svg" width="1920" height="744" viewBox="0 0 1920 744" fill="none" xmlns="http://www.w3.org/2000/svg"><path class="mainLines__path mainLines__path_5" d="M1.1 742.9c627.7-446.5 789.5 0 548.5 0-220.5 0-226.4-391.5 404.3-179.4 591.4 198.8 858-195.9 967.4-562.4" stroke="#DBE9EF" stroke-miterlimit="10"/><path class="mainLines__path mainLines__path_4" d="M1.1 631.7c671.3-374.5 798.3 90.6 563.1 89-222.7-1.8-196.9-410.2 423.4-178 561.5 210.2 812.9-147.8 933.7-420.1" stroke="#BBCDD9" stroke-miterlimit="10"/><path class="mainLines__path mainLines__path_3" d="M1.1 520.5C716 218 808.3 701.5 578.8 698.3c-224.9-3.5-167.3-429.5 442.5-176.5 531.8 220.7 767.7-99.6 900-277.9" stroke="#9BB1C3" stroke-miterlimit="10"/><path class="mainLines__path mainLines__path_2" d="M1.2 409.3c758.6-230.4 816 271.7 592.3 266.8-227.1-5.4-137.2-449.8 461.6-175 502.3 230.5 722.5-51.5 866.2-135.7" stroke="#7B96AE" stroke-miterlimit="10"/><path class="mainLines__path mainLines__path_1" d="M1.1 298.3c802.3-158.5 825 362.2 607 355.6-229.3-7.2-106.7-470.9 480.7-173.6 473.3 239.5 677.4-3.3 832.5 6.5" stroke="#5B7A98" stroke-miterlimit="10"/><path class="mainLines__path mainLines__path_0" d="M1 186.9c845.9-86.4 833.8 452.8 621.6 444.6-231.4-8.9-75.3-492.8 500-172.1 444.9 248.1 632.2 44.8 798.8 148.9" stroke="#3B5E82" stroke-miterlimit="10"/></svg>