<svg width="1920" height="1097" viewBox="0 0 1920 1097" fill="none" xmlns="http://www.w3.org/2000/svg"><g opacity=".8" stroke-miterlimit="10"><path d="M.5 1C109 241.461 401 316.574 639 316.574c267 0 281-200.953 181-152.178-64-45.848-82 62.432-9 143.399 281 311.672 727-279.969 1110-114.134" stroke="#3B5E82"/><path d="M.4 137.082c129 204.465 452.8 255.484 695.6 212.659 265.2-46.726 241.2-253.63 126-197.246-101.2-56.384-100.9 111.109 19 206.416 315.1 250.508 720.2-264.166 1080 15.218" stroke="#5B7A98"/><path d="M.3 273.165C149.8 441.634 505.2 469.631 753 382.909c263.2-92.185 201.4-306.308 71-242.315-138.4-66.92-124.4 162.421 47 269.434 329.6 205.733 713.4-248.363 1050 144.569" stroke="#7B96AE"/><path d="M.2 409.247c170 132.473 557.3 138.521 809.8 6.828 261.5-136.472 161.6-358.984 16-287.382-175.6-77.455-151.2 218.707 75 332.45 338.2 170.03 706.6-232.559 1020 273.921" stroke="#9BB1C3"/><path d="M.1 545.33c190.5 96.477 610.3 81.259 866.9-96.087 260.4-180.078 121.8-411.662-39-332.451-206.6-85.551-180 280.847 103 395.469 345.7 139.984 699.8-216.757 990 403.272" stroke="#BBCDD9"/><path d="M0 681.412c211 60.481 664 24.387 924-199.002 260-223.39 82-464.339-94-377.519C591.4 12.706 620 454.12 961 563.376c354.5 113.549 693-200.953 960 532.624" stroke="#DBE9EF"/></g></svg>