<svg width="43" height="42" viewBox="0 0 43 42" fill="none" xmlns="http://www.w3.org/2000/svg"><path d="M19.701 39.377c.657 0 1.313-.033 1.97-.099V35.34a15.75 15.75 0 1113.781-15.652c0 .44 0 .88-.059 1.313h3.938c0-.433.046-.873.046-1.313A19.688 19.688 0 1019.7 39.377z" fill="#8D9BB2"/><path d="M35.45 35.281V24.94h-3.937v10.34l-3.859-3.858-2.782 2.782 7.219 7.22a1.969 1.969 0 002.782 0l7.22-7.22-2.783-2.782-3.86 3.858z" fill="#BF5F5C"/><path d="M12.81 19.032a2.297 2.297 0 100-4.594 2.297 2.297 0 000 4.594zm13.781 0a2.297 2.297 0 100-4.594 2.297 2.297 0 000 4.594zm-.984 6.373a8.309 8.309 0 00-11.747 0l-.768.767 2.782 2.783.768-.768a4.37 4.37 0 016.176 0l.768.768 2.782-2.782-.761-.768z" fill="#8D9BB2"/></svg>