<svg width="55" height="55" viewBox="0 0 55 55" fill="none" xmlns="http://www.w3.org/2000/svg"><path d="M50 25.5A24.5 24.5 0 1025.5 50" stroke="#7C8F99" stroke-width="2" stroke-linecap="round"/><path d="M46 35a1 1 0 10-2 0h2zm-1 19l-.707.707a1 1 0 001.414 0L45 54zm9.707-8.293a1 1 0 00-1.414-1.414l1.414 1.414zm-18-1.414a1 1 0 00-1.414 1.414l1.414-1.414zM44 35v19h2V35h-2zm1.707 19.707l9-9-1.414-1.414-9 9 1.414 1.414zm0-1.414l-9-9-1.414 1.414 9 9 1.414-1.414z" fill="#C74F6C"/><circle cx="17.5" cy="20.5" r="2.5" fill="#7C8F99"/><circle cx="34.5" cy="20.5" r="2.5" fill="#7C8F99"/><path d="M16.808 34.808a13.001 13.001 0 0118.384 0" stroke="#7C8F99" stroke-width="2" stroke-linecap="round"/></svg>