<svg width="43" height="42" viewBox="0 0 43 42" fill="none" xmlns="http://www.w3.org/2000/svg"><path d="M12.81 19.031a2.297 2.297 0 100-4.593 2.297 2.297 0 000 4.593zm13.781 0a2.297 2.297 0 100-4.594 2.297 2.297 0 000 4.594zM19.7 28.875a8.25 8.25 0 005.874-2.435l.768-.768-2.783-2.782-.768.767a4.37 4.37 0 01-6.175 0l-.768-.767-2.782 2.782.768.768a8.25 8.25 0 005.867 2.435z" fill="#8D9BB2"/><path d="M19.7 39.375c.657 0 1.313-.033 1.97-.098v-3.938a15.75 15.75 0 1113.78-15.651c0 .44 0 .879-.058 1.312h3.937c0-.433.046-.873.046-1.313a19.688 19.688 0 10-19.674 19.688z" fill="#8D9BB2"/><path d="M33.482 24.938a1.97 1.97 0 00-1.392.577l-7.218 7.219 2.782 2.782 3.859-3.858V42h3.937V31.657l3.86 3.86 2.782-2.783-7.22-7.219a1.969 1.969 0 00-1.39-.578z" fill="#76A484"/></svg>