<svg width="444" height="444" viewBox="0 0 444 444" fill="none" xmlns="http://www.w3.org/2000/svg"><path opacity=".6" class="sliderEquipWarranty__visible" d="M299.691 356.567c-18.511 10.687-32.365 18.686-44.125 24.083-11.751 5.394-21.378 8.174-31.426 8.445a78.372 78.372 0 01-4.282 0c-10.048-.271-19.675-3.051-31.426-8.445-11.76-5.397-25.614-13.396-44.125-24.083-18.511-10.688-32.365-18.687-42.92-26.172-10.546-7.48-17.768-14.427-23.026-22.993a79.747 79.747 0 01-2.141-3.709c-4.79-8.837-7.195-18.564-8.4-31.437-1.205-12.884-1.205-28.881-1.205-50.256s0-37.372 1.206-50.256c1.204-12.873 3.61-22.6 8.399-31.437a79.837 79.837 0 012.141-3.709c5.258-8.566 12.48-15.513 23.026-22.993 10.555-7.485 24.409-15.484 42.92-26.172 18.511-10.687 32.365-18.686 44.125-24.083 11.751-5.394 21.378-8.174 31.426-8.445a79.389 79.389 0 014.282 0c10.048.27 19.675 3.051 31.426 8.445 11.76 5.397 25.614 13.396 44.125 24.083 18.512 10.688 32.365 18.687 42.92 26.172 10.546 7.48 17.768 14.427 23.026 22.993a79.386 79.386 0 012.141 3.709c4.79 8.837 7.195 18.564 8.4 31.437 1.205 12.884 1.206 28.881 1.206 50.256s-.001 37.372-1.206 50.256c-1.205 12.873-3.61 22.6-8.4 31.437a79.386 79.386 0 01-2.141 3.709c-5.258 8.566-12.48 15.513-23.026 22.993-10.555 7.486-24.408 15.485-42.92 26.172z" stroke="#7C8F99"/><path class="sliderEquipWarranty__path sliderEquipWarranty__path_2" opacity=".5" d="M141.507 337.465c-14.649-8.458-25.605-14.783-33.906-20.733-8.291-5.943-13.901-11.487-17.872-18.366-3.972-6.878-5.969-14.509-6.97-24.661-1.001-10.163-1.002-22.814-1.002-39.73v-23.951c0-16.915 0-29.566 1.002-39.73 1.001-10.152 2.998-17.782 6.97-24.661 3.97-6.878 9.58-12.423 17.872-18.366 8.301-5.949 19.257-12.275 33.906-20.733l20.742-11.975c14.65-8.458 25.606-14.783 34.909-18.997 9.292-4.21 16.899-6.295 24.841-6.295 7.943 0 15.55 2.085 24.842 6.295 9.303 4.214 20.259 10.539 34.908 18.997l20.743 11.975c14.649 8.458 25.605 14.784 33.905 20.733 8.292 5.943 13.902 11.488 17.873 18.366 3.971 6.879 5.968 14.509 6.969 24.661 1.002 10.164 1.003 22.815 1.003 39.73l-.001 23.951c0 16.916 0 29.567-1.002 39.73-1.001 10.152-2.998 17.783-6.969 24.661-3.971 6.879-9.581 12.423-17.873 18.366-8.3 5.95-19.256 12.275-33.905 20.733l-20.743 11.976c-14.649 8.458-25.605 14.783-34.908 18.997-9.292 4.209-16.899 6.295-24.842 6.295-7.942 0-15.549-2.086-24.841-6.295-9.303-4.214-20.259-10.539-34.909-18.997l-20.742-11.976z" stroke="#7C8F99"/><path class="sliderEquipWarranty__path sliderEquipWarranty__path_3" opacity=".4" d="M206.723 327.958c-11.281 0-19.705-.001-26.471-.667-6.754-.666-11.815-1.993-16.373-4.625-4.558-2.632-8.238-6.351-12.192-11.868-3.961-5.525-8.173-12.821-13.813-22.59l-15.276-26.459c-5.64-9.769-9.852-17.065-12.657-23.257-2.801-6.183-4.182-11.23-4.182-16.493 0-5.263 1.381-10.309 4.182-16.492 2.805-6.192 7.017-13.488 12.657-23.258l15.276-26.458c5.64-9.769 9.852-17.065 13.813-22.59 3.954-5.517 7.634-9.237 12.192-11.868 4.558-2.632 9.619-3.959 16.373-4.625 6.766-.667 15.19-.667 26.471-.667h30.551c11.281 0 19.705 0 26.471.667 6.754.666 11.815 1.993 16.373 4.625 4.558 2.631 8.238 6.351 12.192 11.868 3.961 5.525 8.173 12.821 13.813 22.59l15.276 26.458c5.64 9.77 9.852 17.066 12.657 23.258 2.801 6.183 4.182 11.229 4.182 16.492 0 5.263-1.381 10.31-4.182 16.493-2.805 6.192-7.017 13.488-12.657 23.257l-15.276 26.459c-5.64 9.769-9.852 17.065-13.813 22.59-3.954 5.517-7.634 9.236-12.192 11.868-4.558 2.632-9.619 3.959-16.373 4.625-6.766.666-15.19.667-26.471.667h-30.551z" stroke="#7C8F99"/><path class="sliderEquipWarranty__path sliderEquipWarranty__path_4" opacity=".3" d="M185.617 285.015c-16.238-9.375-24.214-13.993-29.217-21.125a39.436 39.436 0 01-3.479-6.025c-3.674-7.899-3.685-17.115-3.685-35.865 0-18.75.011-27.966 3.685-35.865a39.436 39.436 0 013.479-6.025c5.003-7.132 12.979-11.75 29.217-21.125s24.225-13.973 32.903-14.74a39.438 39.438 0 016.958 0c8.677.767 16.664 5.365 32.902 14.74s24.214 13.993 29.217 21.125a39.436 39.436 0 013.479 6.025c3.675 7.899 3.686 17.115 3.686 35.865 0 18.75-.011 27.966-3.686 35.865a39.513 39.513 0 01-3.478 6.025c-5.004 7.132-12.98 11.75-29.218 21.125s-24.225 13.973-32.902 14.74a39.438 39.438 0 01-6.958 0c-8.678-.767-16.665-5.365-32.903-14.74z" stroke="#7C8F99"/><path class="sliderEquipWarranty__path sliderEquipWarranty__path_5" opacity=".2" d="M192.432 239.071c-4.132-7.157-6.121-10.621-6.647-14.344a19.462 19.462 0 010-5.454c.526-3.723 2.515-7.187 6.647-14.344 4.132-7.156 6.136-10.611 9.098-12.928a19.492 19.492 0 014.723-2.727c3.488-1.406 7.482-1.415 15.746-1.415s12.258.009 15.746 1.415a19.492 19.492 0 014.723 2.727c2.962 2.317 4.966 5.772 9.098 12.928 4.132 7.157 6.122 10.621 6.647 14.344a19.462 19.462 0 010 5.454c-.525 3.723-2.515 7.187-6.647 14.344-4.132 7.156-6.136 10.611-9.098 12.928a19.492 19.492 0 01-4.723 2.727c-3.488 1.406-7.482 1.415-15.746 1.415s-12.258-.009-15.746-1.415a19.492 19.492 0 01-4.723-2.727c-2.962-2.317-4.966-5.772-9.098-12.928z" stroke="#7C8F99"/></svg>