<svg width="259" height="287" viewBox="0 0 259 287" fill="none" xmlns="http://www.w3.org/2000/svg"><path opacity=".5" d="M169.25 269.473c-9.769 5.64-17.065 9.852-23.258 12.657-6.182 2.801-11.229 4.182-16.492 4.182-5.263 0-10.31-1.381-16.492-4.182-6.193-2.805-13.489-7.017-23.258-12.657l-49.47-28.562c-9.77-5.64-17.065-9.853-22.59-13.813-5.518-3.954-9.237-7.634-11.869-12.192-2.631-4.558-3.959-9.619-4.624-16.374-.667-6.765-.668-15.19-.668-26.47v-57.124c0-11.28 0-19.705.668-26.47.665-6.755 1.993-11.816 4.624-16.374 2.632-4.558 6.351-8.238 11.868-12.192 5.526-3.96 12.821-8.173 22.59-13.813L89.75 17.527c9.77-5.64 17.065-9.852 23.258-12.657C119.19 2.07 124.237.688 129.5.688c5.263 0 10.31 1.381 16.492 4.182 6.193 2.805 13.489 7.017 23.258 12.657l49.471 28.562c9.769 5.64 17.064 9.853 22.59 13.813 5.517 3.954 9.236 7.634 11.868 12.192 2.631 4.558 3.959 9.62 4.624 16.374.667 6.765.668 15.19.668 26.47v57.124c0 11.28-.001 19.705-.668 26.47-.665 6.755-1.993 11.816-4.624 16.374-2.632 4.558-6.351 8.238-11.868 12.192-5.526 3.96-12.821 8.173-22.59 13.813l-49.471 28.562z" stroke="#7C8F99"/></svg>