<svg width="69" height="73" viewBox="0 0 69 73" fill="none" xmlns="http://www.w3.org/2000/svg"><path d="M61.799 46c5.5-24.876-6.932-24.876-15.5-24.876S23.799 19 31.299 46" stroke="#8D5287" stroke-width="2"/><path opacity=".5" d="M64.737 38c-1.984 1.985-6.35 6.152-7.938 6.946" stroke="#8D5287" stroke-width="2"/><path d="M67.281 22.823c0 5.884-1.705 14.917-5.238 22.453-3.564 7.6-8.772 13.26-15.592 13.26s-12.028-5.66-15.591-13.26c-3.534-7.536-5.239-16.569-5.239-22.454C25.621 11.26 35.004 1 46.451 1c11.448 0 20.83 10.26 20.83 21.823zm-29.76 21.83L26.606 56.56m-1.985-1.984l3.97 3.969-12.9 12.9-3.97-3.97 12.9-12.9z" stroke="#8D5287" stroke-width="2"/><path opacity=".5" d="M13.706 69.46c-3.969 3.969-11.907 3.969-11.907-4.962 0-8.93 21.83-14.884 14.884-25.799" stroke="#8D5287" stroke-width="2"/><circle cx="39.505" cy="42.668" r="4.461" fill="#8D5287" stroke="#8D5287"/></svg>