<svg width="255" height="367" viewBox="0 0 255 367" fill="none" xmlns="http://www.w3.org/2000/svg"><path d="M97.771 13.725c7.324-4.224 12.786-7.374 17.421-9.472 4.624-2.093 8.388-3.12 12.308-3.12s7.685 1.027 12.309 3.12c4.634 2.098 10.096 5.248 17.42 9.472l67.5 38.935c7.334 4.23 12.803 7.386 16.944 10.351 4.132 2.96 6.909 5.707 8.872 9.106 1.963 3.398 2.956 7.177 3.455 12.234.499 5.07.5 11.383.5 19.85V262.8c0 8.466-.001 14.78-.501 19.849-.499 5.057-1.492 8.836-3.455 12.234-1.963 3.399-4.74 6.147-8.871 9.106-4.141 2.965-9.61 6.121-16.944 10.351l-67.5 38.935c-7.324 4.224-12.786 7.374-17.421 9.472-4.624 2.093-8.388 3.12-12.308 3.12s-7.685-1.027-12.309-3.12c-4.634-2.098-10.096-5.248-17.42-9.472l-67.5-38.935c-7.334-4.23-12.803-7.386-16.944-10.351-4.132-2.959-6.909-5.707-8.872-9.106C2.492 291.485 1.5 287.706 1 282.648c-.5-5.068-.5-11.382-.5-19.849V104.2c0-8.466.001-14.78.5-19.849.5-5.057 1.493-8.836 3.456-12.234 1.963-3.399 4.74-6.147 8.871-9.106 4.141-2.965 9.61-6.12 16.944-10.35l67.5-38.936z" stroke="#A9C2C9"/></svg>