<svg width="235" height="261" viewBox="0 0 235 261" fill="none" xmlns="http://www.w3.org/2000/svg"><clipPath id="stageImg"><path d="M153 244.349c-8.801 5.082-15.341 8.856-20.884 11.367-5.523 2.502-9.985 3.715-14.616 3.715s-9.093-1.213-14.616-3.715c-5.543-2.511-12.083-6.285-20.884-11.367l-45.346-26.18c-8.802-5.082-15.34-8.858-20.286-12.403-4.928-3.532-8.21-6.79-10.525-10.801-2.316-4.01-3.497-8.481-4.091-14.515-.597-6.056-.598-13.606-.598-23.769v-52.362c0-10.163 0-17.713.598-23.769.594-6.034 1.775-10.505 4.09-14.515 2.316-4.011 5.598-7.269 10.526-10.801 4.946-3.545 11.484-7.321 20.286-12.403L82 16.651c8.802-5.082 15.34-8.856 20.884-11.367 5.523-2.502 9.985-3.715 14.616-3.715s9.093 1.213 14.616 3.715c5.543 2.51 12.083 6.285 20.884 11.367l45.346 26.18c8.802 5.082 15.34 8.858 20.286 12.403 4.928 3.532 8.21 6.79 10.525 10.8 2.316 4.011 3.497 8.482 4.091 14.516.597 6.056.598 13.606.598 23.769v52.362c0 10.163-.001 17.713-.598 23.769-.594 6.034-1.775 10.505-4.091 14.515-2.315 4.011-5.597 7.269-10.525 10.801-4.946 3.545-11.484 7.321-20.286 12.403L153 244.349z" fill="#fff" stroke="#DBE9EF" stroke-width="2"/></clipPath></svg>