<svg width="281" height="323" viewBox="0 0 281 323" fill="none" xmlns="http://www.w3.org/2000/svg"><path class="border" d="M89.433 30.286c18.632-10.754 27.76-16.01 37.444-18.078a63.003 63.003 0 0126.101-.048c9.691 2.034 18.839 7.256 37.51 17.941l38.479 22.022c18.83 10.777 28.044 16.063 34.739 23.46a62.982 62.982 0 0113.188 22.743c3.094 9.485 3.106 20.108 3.106 41.804v42.74c0 21.696-.012 32.319-3.106 41.804a62.981 62.981 0 01-13.188 22.743c-6.695 7.397-15.909 12.683-34.739 23.46l-38.479 22.022c-18.671 10.685-27.819 15.907-37.51 17.941a63.002 63.002 0 01-26.101-.048c-9.684-2.069-18.812-7.324-37.444-18.078L51.71 270.942c-18.714-10.802-27.872-16.101-34.525-23.488a63.006 63.006 0 01-13.102-22.69C1.012 215.309 1 204.729 1 183.12v-43.24c0-21.609.012-32.189 3.084-41.644a63 63 0 0113.102-22.69c6.653-7.387 15.81-12.686 34.526-23.488l37.72-21.772z" stroke="#8D5287" stroke-width="2"/><path d="M92.137 35.596c17.417-10.055 26.125-15.083 35.385-17.062a60.004 60.004 0 0124.864-.046c9.267 1.945 17.994 6.941 35.447 16.933l37.863 21.675c17.593 10.073 26.39 15.109 32.79 22.18a59.997 59.997 0 0112.557 21.658C274 110.001 274 120.137 274 140.41v42.18c0 20.273 0 30.409-2.957 39.476a59.996 59.996 0 01-12.557 21.658c-6.4 7.071-15.197 12.107-32.79 22.179l-37.863 21.676c-17.453 9.992-26.18 14.988-35.447 16.933a60.004 60.004 0 01-24.864-.046c-9.26-1.979-17.968-7.006-35.385-17.062L55 265.963c-17.487-10.096-26.23-15.144-32.589-22.206A60.002 60.002 0 019.937 222.15C7 213.112 7 203.016 7 182.824v-42.648c0-20.192 0-30.288 2.937-39.326A60 60 0 0122.41 79.243c6.36-7.062 15.102-12.11 32.589-22.206l37.137-21.441z" fill="url(#paint0_linear)"/><mask id="mask0" maskUnits="userSpaceOnUse" x="7" y="17" width="267" height="289"><path d="M92.137 35.596c17.417-10.055 26.125-15.083 35.385-17.062a60.004 60.004 0 0124.864-.046c9.267 1.945 17.994 6.941 35.447 16.933l37.863 21.675c17.593 10.073 26.39 15.109 32.79 22.18a59.997 59.997 0 0112.557 21.658C274 110.001 274 120.137 274 140.41v42.18c0 20.273 0 30.409-2.957 39.476a59.996 59.996 0 01-12.557 21.658c-6.4 7.071-15.197 12.107-32.79 22.179l-37.863 21.676c-17.453 9.992-26.18 14.988-35.447 16.933a60.004 60.004 0 01-24.864-.046c-9.26-1.979-17.968-7.006-35.385-17.062L55 265.963c-17.487-10.096-26.23-15.144-32.589-22.206A60.002 60.002 0 019.937 222.15C7 213.112 7 203.016 7 182.824v-42.648c0-20.192 0-30.288 2.937-39.326A60 60 0 0122.41 79.243c6.36-7.062 15.102-12.11 32.589-22.206l37.137-21.441z" fill="url(#paint1_linear)"/></mask><g mask="url(#mask0)" class="circle"><circle cx="140.5" cy="301" r="287.5" fill="url(#paint2_radial)"/></g><defs><linearGradient id="paint0_linear" x1="143.763" y1="-11.148" x2="87.023" y2="305.415" gradientUnits="userSpaceOnUse"><stop stop-color="#A9C2C9"/><stop offset=".92" stop-color="#79A5B1"/></linearGradient><linearGradient id="paint1_linear" x1="143.763" y1="-11.148" x2="87.023" y2="305.415" gradientUnits="userSpaceOnUse"><stop stop-color="#A9C2C9"/><stop offset=".92" stop-color="#79A5B1"/></linearGradient><radialGradient id="paint2_radial" cx="0" cy="0" r="1" gradientUnits="userSpaceOnUse" gradientTransform="matrix(0 287.5 -287.5 0 140.5 301)"><stop offset=".547" stop-color="#E7F0FA"/><stop offset="1" stop-color="#fff" stop-opacity="0"/></radialGradient></defs></svg>