<svg width="831" height="340" viewBox="0 0 831 340" fill="none" xmlns="http://www.w3.org/2000/svg">
<g opacity="0.15" filter="url(#filter0_f)">
<path d="M660.62 300.274C658.217 298.88 655.677 297.633 653.137 296.387C635.758 285.158 630.192 263.189 620.521 245.376C609.941 226.178 594.832 209.375 577.038 196.668C545.849 174.487 507.808 166.111 470.227 171.165C469.591 171.263 468.88 171.292 468.244 171.39C466.897 171.517 465.556 171.787 464.283 171.982C462.515 172.269 461.487 173.237 460.963 174.398C430.178 166.004 398.529 159.141 366.723 160.894C371.406 158.777 376.163 156.729 380.926 154.823C409.07 143.26 437.935 133.731 467.294 125.89C471.342 136.465 481.391 145.866 490.441 151.608C491.464 152.277 492.629 152.94 493.719 153.535C505.071 159.893 517.992 162.769 530.971 161.73C532.034 161.615 532.841 160.442 532.023 159.552C531.205 158.661 530.461 157.838 529.643 156.947C516.266 142.562 501.826 128.292 483.491 121.656C495.255 118.675 507.104 116.047 518.953 113.418C519.526 115.315 521.072 116.603 523.004 116.878C527.456 123.31 536.912 124.908 544.082 126.317C566.743 130.78 589.916 132.019 613.073 131.054C661.875 129.09 709.686 118.273 757.923 110.996C761.389 110.496 763.061 107.794 762.67 105.106C762.488 104.117 762.091 103.067 761.347 102.244C761.046 101.829 760.603 101.421 760.023 101.16C690.173 54.9749 590.668 32.5115 524.312 97.8247C523.215 98.8667 522.833 100.021 522.805 101.09C522.117 101.688 521.571 102.28 521.099 102.94C520.491 103.748 520.025 104.55 519.632 105.42C516.74 106.039 513.915 106.584 511.023 107.202C533.236 89.6254 534.916 49.4232 539.227 23.556C539.46 22.2654 537.938 21.5462 536.977 22.4401C535.743 23.63 534.51 24.82 533.35 26.078C527.502 29.3104 522.329 33.4398 517.742 37.9716C515.485 40.2715 513.37 42.5655 511.34 45.2118L511.272 45.2858C506.934 50.7322 503.256 56.6493 500.014 62.8327C499.486 63.851 498.957 64.8692 498.502 65.9555C491.461 80.4092 484.5 96.852 485.574 113.173C463.802 118.564 442.2 124.659 420.996 131.805C422.372 130.609 423.674 129.345 424.907 128.155C443.973 110.14 459.403 88.3634 471.868 65.3583C497.047 18.4837 509.352 -33.6889 521.116 -85.1274C521.23 -85.8437 521.486 -86.5659 521.6 -87.2823C522.579 -91.3078 517.426 -95.647 513.84 -92.7935C494.86 -77.9843 475.534 -62.9472 459.974 -44.4382C455.489 -39.1279 451.23 -33.4713 447.114 -27.8206C437.881 -14.841 429.676 -1.05027 422.255 12.7788C421.789 13.581 421.391 14.3092 420.999 15.1794C410.528 -22.8084 387.912 -56.6609 357.321 -81.7132C357.247 -81.7813 357.173 -81.8494 357.099 -81.9175C352.248 -85.8422 345.676 -79.3065 349.261 -75.0442C352.247 -51.7583 349.562 -27.9513 347.655 -4.24785C345.766 18.1029 344.656 40.35 349.648 62.2003C354.38 82.8518 366.279 101.212 379.519 117.524C383.637 122.689 391.031 135.118 399.178 139.617C381.44 146.262 363.941 153.538 346.908 161.791C345.163 162.647 330.795 169.934 329.26 170.71C306.469 182.69 284.529 196.413 263.731 212.009C260.275 214.573 257.035 217.198 253.653 219.83C255 217.923 256.274 215.949 257.417 214.265C269.066 197.626 279.034 179.849 287.122 161.295C288.1 159.049 288.936 156.808 289.914 154.561C290.716 153.247 291.296 151.729 291.66 150.148C303.548 119.767 310.464 87.8138 312.521 55.3519C315.177 32.6134 316.744 7.50102 329.854 -11.7598C329.991 -11.9078 329.985 -12.0498 330.048 -12.2659C330.253 -12.4879 330.463 -12.5678 330.667 -12.7898C331.838 -13.7637 331.924 -15.1904 331.311 -16.3033C330.692 -17.5583 329.237 -18.3516 327.862 -17.1557C311.662 -4.02788 296.433 10.2692 282.238 25.5192C281.147 26.7033 280.124 27.8133 279.032 28.9973C276.099 32.1793 273.171 35.5034 270.385 38.8216C270.112 39.1176 269.84 39.4136 269.635 39.6356C252.29 59.7845 235.826 80.6082 226.725 105.892C219.284 126.411 213.849 149.052 211.631 172.057C198.974 145.332 183.328 118.589 164.635 95.7444C135.701 60.4477 92.9661 34.1939 45.9341 43.1283C44.3088 43.4095 43.564 44.3656 43.3249 45.5141C43.0859 46.6626 43.4207 47.9294 44.1022 48.9684C44.2324 50.4572 45.0729 51.9164 46.9422 52.4077C57.8857 55.6515 69.0275 60.3102 76.622 68.8169C77.3661 69.6398 78.1158 70.6047 78.8656 71.5697C79.7687 72.8128 80.6035 74.13 81.3702 75.5212C84.7434 81.6423 86.9344 88.4531 89.5403 94.962C90.7213 97.8302 91.9761 100.766 93.5094 103.549C105.378 124.757 120.942 142.252 130.452 164.982C138.634 184.707 147.754 201.19 164.66 214.859C177.522 225.21 191.537 234.16 206.218 241.945C207.315 242.682 208.479 243.345 209.707 243.792C213.411 245.701 217.11 247.468 220.951 249.229C201.1 268.984 183.323 290.788 167.176 314.231C156.748 329.395 146.395 344.627 136.337 360.132C137.532 356.168 138.579 352.069 139.637 348.253C144.115 331.985 146.309 315.528 145.713 298.689C145.027 276.018 140.029 254.026 133.479 232.383C128.535 202.775 113.219 175.378 104.671 146.418C104.161 144.304 103.582 142.265 102.997 140.083C102.986 139.799 102.907 139.589 102.827 139.379C102.816 139.095 102.663 138.816 102.651 138.532C102.634 138.106 102.407 137.76 102.18 137.413C101.442 134.954 97.7541 135.25 97.2134 137.763C96.9061 138.985 96.5305 140.282 96.2289 141.646C95.5292 143.739 94.8295 145.832 94.2036 147.993C87.4174 167.061 84.2279 187.118 80.8907 207.038C80.0251 212.126 79.2334 217.283 78.5837 222.433C76.3499 239.675 75.2582 257.011 76.4509 274.537C77.1574 285.181 78.5742 295.796 80.6275 306.312C79.8265 305.848 79.0936 305.309 78.3664 304.912C43.8977 284.362 -1.5071 287.679 -40.1647 285.306C-42.8752 285.134 -43.2401 288.494 -41.479 289.843C-41.4051 289.911 -41.3313 289.979 -41.1836 290.116L-41.0359 290.252C-40.8882 290.388 -40.7405 290.524 -40.5246 290.586C-24.5876 297.749 -11.2317 308.008 -0.541788 321.011C3.64442 326.102 7.42134 331.637 10.7889 337.616C11.2489 338.45 11.7089 339.285 12.2371 340.046C21.704 356.302 31.5309 367.277 49.5644 375.277C66.4389 382.757 84.7178 387.972 102.793 391.63C107.958 392.695 112.327 393.438 115.936 392.932C114.668 395.048 113.4 397.164 112.132 399.281C111.399 400.521 106.076 409.851 105.547 410.869C100.635 419.755 95.8637 428.635 91.4564 437.714C84.5414 451.735 78.4273 466.221 73.3247 481.092C72.0013 463.856 60.4251 450.037 48.2858 438.162C36.0783 426.361 21.3361 415.234 3.42324 419.255C3.21296 419.334 3.00267 419.414 2.93445 419.488C2.65032 419.5 2.3718 419.654 2.0933 419.808C1.88301 419.888 1.74092 419.894 1.53063 419.974C1.32035 420.054 1.1101 420.134 1.04188 420.208C0.831593 420.288 0.689498 420.294 0.479207 420.374C-1.061 421.007 -0.181013 423.461 1.35919 422.827C1.42741 422.753 1.56946 422.747 1.63768 422.673C7.85351 425.118 12.9266 429.247 17.181 434.264C21.3559 439.071 24.9168 444.544 28.2676 450.097C30.9311 454.469 33.6629 458.766 36.3778 462.638C45.0337 474.587 56.3325 485.003 71.2312 487.512C61.7307 517.083 56.6222 547.964 58.1508 579.351C58.4218 584.392 66.1616 583.998 65.9645 579.026C64.5766 551.19 68.4959 524.414 76.0119 498.627C78.7499 501.288 81.5562 503.875 84.2942 506.536C91.5532 515.555 103.332 518.337 114.537 521C129.907 524.629 144.654 523.302 160.14 520.878C161.765 520.596 163.39 520.315 164.947 520.108C179.933 517.633 194.76 514.738 208.827 508.815C217.994 504.946 226.628 500.174 235.034 495.056C237.425 499.724 239.957 504.386 242.411 508.837C244.784 513.079 247.158 517.321 249.464 521.636C258.073 537.785 265.698 554.26 270.886 572.047C271.958 575.773 273.037 579.642 273.893 583.306C275.783 591.482 276.825 599.835 275.316 608.436C273.938 616.748 271.464 624.323 271.659 632.853C271.744 634.984 274.71 636.213 276.137 634.517C293.044 614.101 298.913 584.469 301.099 558.833C302.16 546.122 302.29 533.238 301.715 520.525C301.495 516.763 301.343 512.927 301.123 509.164C321.745 523.247 342.561 536.824 363.451 550.469C374.336 557.629 385.29 564.715 396.18 572.017C398.811 573.757 401.943 571.99 403.194 569.447C403.592 568.719 403.774 567.929 403.814 567.144C403.823 558.392 400.484 551.344 396.06 543.844C390.267 534.124 386.81 524.092 382.626 513.665C374.496 493.439 362.308 474.949 347.033 459.362C320.778 432.421 277.185 406.061 237.746 410.907L237.604 410.913C218.225 399.482 196.668 392.34 174.109 390.435C158.261 389.103 139.69 389.095 124.135 395.151C136.752 374.203 150.25 353.93 163.475 333.953C168.376 326.562 173.425 319.307 178.479 312.194C179.719 323.741 185.369 337.025 188.509 342.658C194.409 353.299 202.953 362.406 212.667 370.54C228.045 383.347 246.254 393.973 261.411 404.797C262.291 405.472 263.36 405.499 264.127 405.111C265.457 404.557 266.327 403.169 265.407 401.5C259.097 391.303 256.232 380.037 253.576 368.692C277.949 384.042 304.118 396.257 332.637 401.329C348.974 404.206 365.561 404.439 382.109 403.678C390.349 403.335 398.577 402.707 406.732 402.011C420.28 400.948 433.827 399.885 447.369 398.68C460.701 397.555 476.568 393.976 489.494 398.774C495.414 400.946 500.083 393.067 494.759 389.802C494.611 389.666 494.469 389.672 494.322 389.536C466.079 375.272 446.097 350.418 420.679 332.052C398.336 315.835 372.48 300.761 346.548 290.955C322.566 281.851 296.273 279.105 270.799 277.249C246.967 275.539 223.037 276.75 200.265 283.819C218.122 262.226 237.751 242.266 260.385 224.53C283.088 206.719 307.443 191.117 332.877 177.604C332.946 177.53 333.156 177.45 333.366 177.37C332.9 178.172 332.576 178.968 332.325 179.833C332.149 180.765 332.114 181.691 332.154 182.686C332.64 189.568 339.837 197.024 343.569 201.422C353.81 213.874 364.949 225.649 378.601 234.401C385.828 239.01 393.668 242.952 401.634 246.462C412.497 251.275 423.617 255.365 434.327 259.9C436.355 260.811 438.487 258.944 438.129 257.108C438.039 256.614 437.806 256.126 437.221 255.723C420.286 241.344 413.957 221.684 399.654 205.488C385.573 189.495 365.039 181.244 345.665 173.513C345.375 173.382 344.801 173.264 343.943 173.157C348.575 171.541 353.144 170.141 354.911 169.854C368.783 167.995 382.728 167.982 396.514 169.329C398.372 169.536 403.179 170.545 403.895 170.658C421.788 173.327 442.236 184.785 455.556 197.749C454.647 198.143 453.897 198.957 453.379 200.259C444.898 223.24 449.938 255.264 460.193 277.037C463.299 283.596 467.593 289.608 472.302 295.318C478.277 302.469 484.878 309.238 490.763 315.895C503.208 330.105 515.727 344.384 528.173 358.594C529.365 359.968 530.803 360.335 532.144 360.065C534.616 359.606 536.725 357.17 536.908 354.601C538.025 328.938 539.148 303.417 538.913 277.74C538.903 273.898 538.757 270.204 538.406 266.732C551.308 274.519 564.796 280.93 579.978 285.207C587.967 287.506 596.155 289.442 604.343 291.377C614.332 293.878 624.247 296.311 633.986 299.676C638.605 301.334 643.156 303.065 647.651 305.155C650.207 306.827 652.968 308.278 656.076 309.5C661.934 311.888 666.517 303.657 660.62 300.274ZM118.698 406.977C119.38 406.237 122.285 404.123 123.467 403.433C124.445 402.966 125.491 402.424 125.979 402.19C143.206 395.21 166.095 396.462 182.704 399.042C198.455 401.516 213.387 406.657 227.409 413.971C226.243 415.087 225.521 416.611 225.657 418.242C216.745 437.542 219.682 457.77 226.92 477.036C204.054 476.353 181.229 469.549 158.375 467.371C135.589 465.119 114.05 469.219 94.1521 478.801C89.1222 481.145 84.2512 483.91 79.3915 486.959C87.5378 462.711 98.6329 439.264 111.251 416.537C111.78 415.519 114.668 411.201 116.169 409.573C116.987 408.685 117.874 407.723 118.698 406.977ZM442.38 177.663C447.483 178.944 452.659 180.294 457.693 181.65C457.612 184.997 458.964 188.57 460.224 191.648C455.043 186.599 448.948 181.801 442.38 177.663Z" fill="#3B5E82"/>
</g>
<defs>
<filter id="filter0_f" x="-237" y="-302" width="1067.3" height="1078.52" filterUnits="userSpaceOnUse" color-interpolation-filters="sRGB">
<feFlood flood-opacity="0" result="BackgroundImageFix"/>
<feBlend mode="normal" in="SourceGraphic" in2="BackgroundImageFix" result="shape"/>
<feGaussianBlur stdDeviation="10" result="effect1_foregroundBlur"/>
</filter>
</defs>
</svg>
