<svg width="544" height="340" viewBox="0 0 544 340" fill="none" xmlns="http://www.w3.org/2000/svg">
<g opacity="0.15" filter="url(#filter0_f)">
<path d="M53.7549 118.637C56.0538 118.711 58.3839 118.948 60.7138 119.185C77.8414 118.908 91.3747 105.914 105.971 97.6361C121.813 88.7835 139.787 83.5974 157.853 82.4647C189.48 80.544 219.873 91.3231 244.06 111.335C244.464 111.682 244.95 112.014 245.354 112.361C246.245 113.041 247.069 113.817 247.878 114.512C248.993 115.488 249.292 116.619 249.152 117.663C274.455 125.251 299.695 134.293 321.271 149.456C318.908 145.918 316.464 142.395 313.953 138.97C299.246 118.519 283.142 99.1817 265.952 80.8129C258.476 86.4694 247.299 88.6717 238.425 88.7413C237.414 88.7633 236.306 88.7189 235.279 88.659C224.519 88.1531 214.182 84.5144 205.519 78.099C204.823 77.5524 204.77 76.3753 205.734 76.1077C206.699 75.8401 207.582 75.588 208.547 75.3204C224.246 71.0743 240.64 67.3749 256.428 70.7445C249.469 63.4974 242.297 56.4605 235.124 49.4236C233.89 50.5054 232.241 50.7331 230.763 50.0802C224.818 52.6482 217.475 49.6293 211.821 47.4779C193.947 40.6874 177.124 31.408 161.279 20.5864C127.856 -2.16975 99.0059 -30.7112 68.3071 -56.9518C66.091 -58.8217 66.1004 -61.4525 67.5524 -63.1692C68.113 -63.7842 68.8525 -64.3483 69.7356 -64.6005C70.1286 -64.7597 70.6188 -64.8526 71.1401 -64.7817C140.441 -66.6311 220.183 -38.8264 238.19 36.1221C238.504 37.3346 238.266 38.3126 237.818 39.0758C238.04 39.7971 238.164 40.4521 238.206 41.1225C238.279 41.9566 238.256 42.7244 238.15 43.5076C239.911 45.2093 241.657 46.8292 243.418 48.5309C235.512 26.4529 251.941 -2.52512 260.243 -22.5853C260.644 -23.5942 262.029 -23.4325 262.313 -22.3837C262.658 -21.0075 263.003 -19.6312 263.267 -18.2395C265.96 -13.4069 267.785 -8.24028 269.022 -3.04724C269.6 -0.442974 270.081 2.09489 270.348 4.84293L270.363 4.92479C271.025 10.651 271.018 16.4191 270.586 22.1828C270.512 23.1298 270.437 24.0768 270.281 25.0392C268.896 38.2768 266.584 52.8772 258.68 63.8726C271.614 77.1961 284.119 90.94 295.885 105.248C295.443 103.805 295.082 102.347 294.737 100.971C289.234 79.9642 287.933 57.9069 289.253 36.2859C292.097 -7.67289 306.305 -49.7141 320.572 -91.0031C320.806 -91.5562 320.942 -92.1757 321.176 -92.7288C322.252 -95.9856 327.772 -96.7769 329.042 -93.2013C335.888 -74.4843 342.878 -55.4553 345.702 -35.637C346.527 -29.9418 347.041 -24.1028 347.457 -18.3301C348.258 -5.16749 347.981 8.11449 347.137 21.08C347.113 21.8477 347.074 22.5337 346.968 23.3169C370.964 1.21655 401.679 -12.6588 434.144 -16.8584C434.225 -16.8739 434.307 -16.8894 434.389 -16.9049C439.516 -17.537 441.27 -10.0671 436.885 -8.6428C424.587 6.40765 416.045 24.3084 407.002 41.7953C398.539 58.3242 389.574 74.4393 376.496 87.6023C364.126 100.038 347.725 107.724 331.279 113.384C326.124 115.208 315.485 120.701 307.791 120.293C317.341 132.731 326.447 145.507 334.798 158.766C335.649 160.131 342.551 171.545 343.289 172.762C354.053 191.161 363.455 210.411 371.234 230.478C372.539 233.792 373.665 237.056 374.888 240.386C374.777 238.457 374.747 236.512 374.682 234.828C373.786 218.037 374.57 201.182 377.016 184.606C377.312 182.599 377.707 180.658 378.003 178.652C378.016 177.377 378.273 176.056 378.71 174.786C383.667 148.236 392.804 122.76 405.578 99.054C413.672 81.9165 423.572 63.589 422.798 44.3152C422.767 44.1515 422.833 44.0542 422.884 43.875C422.837 43.6293 422.724 43.4811 422.678 43.2355C422.282 42.0385 422.846 40.9986 423.765 40.4854C424.749 39.8749 426.119 39.9547 426.561 41.3973C432.191 57.7157 436.627 74.4301 439.919 91.361C440.167 92.6709 440.4 93.8989 440.648 95.2087C441.315 98.729 441.916 102.347 442.419 105.898C442.481 106.225 442.543 106.553 442.59 106.798C445.949 128.551 448.394 150.391 443.713 172.14C439.952 189.813 433.853 208.099 425.335 225.232C445.932 212.002 468.638 200.068 491.776 192.208C527.563 180.085 569.084 180.361 598.211 207.238C599.23 208.148 599.334 209.146 598.999 210.057C598.664 210.969 597.874 211.712 596.94 212.143C596.196 213.132 594.967 213.789 593.438 213.316C584.33 210.801 574.462 209.193 565.401 211.843C564.517 212.095 563.568 212.444 562.619 212.794C561.44 213.272 560.276 213.831 559.128 214.473C554.077 217.295 549.555 221.12 544.873 224.551C542.787 226.049 540.62 227.562 538.324 228.845C520.696 238.545 502.099 244.018 485.462 255.82C471.075 266.093 457.447 273.679 439.583 275.875C426.014 277.513 412.247 277.662 398.524 276.7C397.431 276.737 396.323 276.693 395.265 276.469C391.826 276.188 388.454 275.809 384.984 275.364C390.276 297.937 393.214 321.041 394.289 344.583C394.972 359.803 395.573 375.039 395.848 390.337C396.744 387.029 397.805 383.69 398.732 380.546C402.712 367.156 408.38 354.634 416.175 343.066C426.586 327.44 439.731 314.179 453.812 301.844C470.255 283.21 493.015 270.672 511.705 254.071C512.989 252.81 514.289 251.631 515.655 250.355C515.788 250.16 515.936 250.047 516.083 249.934C516.216 249.74 516.445 249.611 516.578 249.417C516.776 249.125 517.088 248.981 517.399 248.837C518.995 247.432 521.456 249.256 520.735 251.258C520.415 252.251 520.111 253.327 519.726 254.417C519.301 256.194 518.875 257.971 518.369 259.763C514.784 276.131 508.239 291.618 501.858 307.074C500.237 311.028 498.535 314.997 496.735 318.9C490.752 331.991 483.925 344.648 475.41 356.437C470.252 363.605 464.607 370.441 458.558 376.93C459.324 376.955 460.075 376.897 460.76 376.937C493.976 377.599 524.42 399.817 552.617 415.083C554.596 416.149 553.381 418.669 551.552 418.846C551.471 418.862 551.389 418.877 551.226 418.908L551.062 418.939C550.899 418.97 550.735 419.001 550.557 418.95C536.223 417.001 522.347 418.358 509.142 422.81C503.971 424.553 498.893 426.787 493.908 429.512C493.22 429.897 492.531 430.282 491.827 430.585C478.056 437.858 466.345 441.264 450.172 438.985C435.041 436.848 419.916 432.505 405.616 427.157C401.521 425.643 398.126 424.251 395.812 422.315C395.776 424.357 395.74 426.399 395.703 428.441C395.675 429.634 395.328 438.52 395.253 439.466C394.812 447.861 394.274 456.189 393.394 464.497C392.11 477.376 390.06 490.231 387.131 502.913C395.61 491.384 409.796 486.746 423.525 483.721C437.27 480.778 452.5 479.42 463.323 490.09C463.436 490.238 463.549 490.387 463.564 490.468C463.758 490.601 463.887 490.831 464.015 491.062C464.128 491.21 464.225 491.276 464.338 491.424C464.45 491.573 464.563 491.721 464.578 491.803C464.691 491.951 464.788 492.017 464.901 492.166C465.706 493.285 464.013 494.624 463.208 493.504C463.193 493.422 463.095 493.356 463.08 493.274C457.642 492.269 452.27 492.947 447.084 494.608C442.045 496.156 437.146 498.441 432.36 500.874C428.574 502.779 424.773 504.602 421.169 506.132C409.855 510.735 397.355 513.103 385.789 508.34C379.511 533.275 369.573 557.207 354.75 578.587C352.352 582.01 347.087 578.343 349.404 574.936C362.572 555.989 371.547 535.462 377.562 514.054C374.473 514.724 371.369 515.312 368.28 515.982C359.23 519.138 349.736 515.933 340.698 512.896C328.311 508.713 318.532 501.322 308.715 492.835C307.697 491.926 306.678 491.016 305.675 490.189C296.232 481.886 287.084 473.358 279.797 463.035C275.051 456.302 271.076 449.168 267.412 441.89C263.688 444.122 259.867 446.288 256.194 448.34C252.668 450.28 249.143 452.22 245.633 454.242C232.511 461.816 219.938 470.05 208.503 480.273C206.117 482.421 203.665 484.666 201.458 486.865C196.549 491.781 192.158 497.192 189.451 503.896C186.778 510.338 185.199 516.744 181.324 522.651C180.332 524.111 177.71 523.675 177.451 521.858C174.515 500.11 183.372 476.722 193.066 457.755C197.887 448.362 203.44 439.253 209.413 430.574C211.215 428.028 213.002 425.399 214.805 422.853C194.149 423.713 173.578 424.133 152.926 424.568C142.143 424.83 131.345 425.01 120.495 425.369C117.885 425.44 116.459 422.827 116.694 420.492C116.733 419.807 116.952 419.172 117.267 418.603C121.095 412.45 126.527 408.962 132.92 405.631C141.248 401.339 148.07 395.807 155.577 390.314C170.148 379.667 186.809 372.016 204.367 367.757C234.612 360.331 276.783 360.907 302.366 381.587L302.463 381.653C321.084 382.111 339.356 386.537 356.039 395.08C367.756 401.086 380.805 409.214 389.08 420.283C389.392 400.04 388.79 379.886 388.25 360.059C388.044 352.72 387.675 345.412 387.24 338.201C381.311 345.769 371.524 352.627 366.85 355.208C358.044 360.099 348.053 362.755 337.666 364.214C321.253 366.475 303.807 365.964 288.418 366.929C287.504 367.017 286.742 366.568 286.372 365.96C285.681 364.988 285.678 363.632 287.055 362.862C295.954 358.463 302.902 351.804 309.737 344.997C285.891 345.104 262.157 342.222 239.9 333.294C227.164 328.159 215.409 321.057 204.117 313.274C198.479 309.424 192.973 305.378 187.549 301.318C178.498 294.637 169.446 287.956 160.461 281.177C151.588 274.547 142.009 265.083 130.827 262.792C125.716 261.724 125.888 254.144 131.058 254.183C131.221 254.152 131.318 254.218 131.482 254.187C157.57 256.538 182.494 247.83 208.395 246.062C231.195 244.456 255.962 245.192 278.474 249.662C299.31 253.771 318.983 263.359 337.692 273.214C355.183 282.451 371.463 293.784 384.365 308.725C381.278 285.734 376.232 263.114 368.1 240.739C359.953 218.283 349.677 196.654 337.729 176.02C337.713 175.938 337.6 175.79 337.488 175.642C337.464 176.409 337.343 177.111 337.14 177.828C336.856 178.56 336.474 179.226 336.011 179.907C332.655 184.529 324.333 186.614 319.784 188.07C307.136 192.332 294.153 195.724 280.728 195.892C273.633 195.965 266.398 195.3 259.265 194.277C249.525 192.899 239.922 190.902 230.412 189.396C228.588 189.148 227.908 186.902 228.963 185.77C229.244 185.462 229.621 185.221 230.208 185.195C248.403 182.511 261.461 171.472 278.603 166.359C295.501 161.292 313.54 164.489 330.537 167.545C330.798 167.58 331.253 167.749 331.902 168.05C329.356 164.885 326.76 161.9 325.644 160.924C316.713 153.542 306.922 147.425 296.648 142.333C295.252 141.664 291.433 140.268 290.881 140.033C277.141 134.071 257.758 133.163 242.722 136.436C243.188 137.111 243.359 138.011 243.152 139.153C239.043 159.012 221.475 179.301 204.734 190.105C199.679 193.353 194.029 195.695 188.22 197.644C180.89 200.05 173.288 201.914 166.238 204.013C151.271 208.545 136.222 213.092 121.254 217.623C119.815 218.065 118.644 217.694 117.82 216.917C116.284 215.512 115.87 212.876 116.867 210.992C127.323 192.474 137.712 174.053 149.125 156.118C150.815 153.423 152.536 150.892 154.303 148.607C141.828 148.426 129.545 147.021 117.006 143.376C110.386 141.492 103.786 139.265 97.1865 137.038C89.0737 134.42 81.0426 131.786 72.7271 129.884C68.756 129.025 64.8004 128.248 60.7279 127.747C58.1994 127.802 55.6244 127.612 52.9056 127.109C47.7442 126.221 48.1302 118.431 53.7549 118.637ZM387.72 430.971C387.565 430.153 386.45 427.396 385.921 426.393C385.44 425.637 384.942 424.798 384.701 424.42C375.657 411.971 359.029 402.824 346.231 397.362C334.082 392.2 321.34 389.271 308.286 388.267C308.616 389.562 308.456 390.949 307.646 392.035C305.453 409.497 294.53 422.421 281.006 432.785C297.369 442.321 316.383 447.539 333.393 456.019C350.387 464.418 363.722 476.733 373.503 492.18C376.01 496.03 378.22 500.106 380.299 504.377C385.197 483.774 387.673 462.443 388.764 440.95C388.838 440.003 388.701 435.704 388.36 433.903C388.174 432.921 387.972 431.857 387.72 430.971ZM260.776 128.097C256.63 126.762 252.403 125.443 248.272 124.19C246.863 126.577 244.349 128.495 242.115 130.106C247.966 128.828 254.35 128.127 260.776 128.097Z" fill="#3B5E82"/>
</g>
<defs>
<filter id="filter0_f" x="0.617188" y="-167" width="672.859" height="801.595" filterUnits="userSpaceOnUse" color-interpolation-filters="sRGB">
<feFlood flood-opacity="0" result="BackgroundImageFix"/>
<feBlend mode="normal" in="SourceGraphic" in2="BackgroundImageFix" result="shape"/>
<feGaussianBlur stdDeviation="7.5" result="effect1_foregroundBlur"/>
</filter>
</defs>
</svg>
