<svg width="253" height="37" viewBox="0 0 253 37" fill="none" xmlns="http://www.w3.org/2000/svg">
<path fill-rule="evenodd" clip-rule="evenodd" d="M72.1249 26.4967V27.9909C72.1249 29.6045 71.3003 30.4412 69.71 30.5607V31.0986H81.6668C88.7349 31.0986 94.1538 26.676 94.1538 19.0261C94.1538 12.9899 90.502 6.65479 80.7244 6.65479H69.71V7.13291H69.9456C71.8893 7.43173 72.1249 8.62703 72.1249 10.0016V26.4967ZM76.7781 9.82233V8.02938H79.8998C85.5543 8.02938 88.7938 12.3922 88.7938 18.3687C88.7938 28.6483 82.4914 29.6643 79.3697 29.6643C77.4849 29.6643 76.7781 28.8276 76.7781 27.7518V9.82233Z" fill="white"/>
<path fill-rule="evenodd" clip-rule="evenodd" d="M121.69 31.1006H135.057L135.889 25.898H135.354C135.19 26.476 134.971 27.0367 134.701 27.5724C134.439 28.2665 133.976 28.8656 133.373 29.2921C132.769 29.7186 132.052 29.9528 131.314 29.9644H127.809C126.087 29.9644 125.374 29.9046 125.314 27.5126V14.8349C125.314 13.4595 125.314 12.2635 127.334 11.9645H127.572V11.4263H119.195V11.9645H119.433C121.453 12.2635 121.453 13.4595 121.453 14.8349V27.991C121.453 29.6056 120.799 30.4428 119.195 30.5624V31.1006H121.69Z" fill="white"/>
<path fill-rule="evenodd" clip-rule="evenodd" d="M97.1357 20.9934C97.1357 26.2207 100.821 31.0996 107.241 31.0996C113.661 31.0996 117.406 25.6399 117.406 20.9934C117.406 16.3469 114.196 10.8291 107.241 10.8291C100.286 10.8291 97.1357 15.708 97.1357 20.9934ZM101.475 20.9934C101.475 16.0565 103.199 11.9327 107.241 11.9327C111.283 11.9327 113.067 16.0565 113.067 20.9934C113.067 25.9303 111.343 29.8799 107.241 29.8799C103.14 29.8799 101.475 25.8142 101.475 20.9934Z" fill="white"/>
<path fill-rule="evenodd" clip-rule="evenodd" d="M155.804 11.4761H155.214C155.155 12.2309 154.919 12.4631 154.446 12.2889C152.638 11.2601 150.57 10.7568 148.482 10.8375C140.688 10.8375 137.677 15.7143 137.677 20.5331C137.677 28.487 143.345 31.0996 148.128 31.0996C152.911 31.0996 155.509 28.1967 156.159 27.1517L155.745 26.7453C155.45 27.2097 153.442 29.9965 148.305 29.9965C145.53 29.9385 142.105 27.6161 142.105 20.7073C142.105 14.9015 145.176 11.8825 148.719 11.8825C149.964 11.9028 151.177 12.2748 152.214 12.9542C153.25 13.6336 154.066 14.5917 154.564 15.7143C154.861 16.2694 155.098 16.8531 155.273 17.4561H155.804V11.4761Z" fill="white"/>
<path fill-rule="evenodd" clip-rule="evenodd" d="M165.829 31.0408H173.877L174.641 25.8382H174.171C173.995 26.197 173.819 26.8548 173.466 27.5126C173.214 28.2114 172.759 28.8152 172.16 29.2427C171.561 29.6703 170.849 29.9013 170.117 29.9046H167.063C165.359 29.9046 164.654 29.8448 164.595 27.4528V21.2335H167.356C169.001 21.2335 169.765 21.4129 169.941 24.1039H170.411V17.1671H169.941C169.765 19.8581 169.001 20.0375 167.356 20.0375H164.595V12.5027H169.295C171.057 12.5027 172.056 13.7585 172.644 14.8947C173.231 16.0309 173.231 15.9113 173.349 16.2701H173.877L172.702 11.4263H158.544V11.9645H158.779C160.776 12.2635 160.776 13.4595 160.776 14.8349V27.991C160.776 29.6056 160.13 30.4428 158.544 30.5624V31.1006L165.829 31.0408Z" fill="white"/>
<path fill-rule="evenodd" clip-rule="evenodd" d="M207.296 26.496V27.991C207.296 29.6654 206.645 30.4428 205.047 30.5624V31.1006H213.394V30.5624C211.795 30.4428 211.144 29.6654 211.144 27.991V14.8349C211.144 13.4595 211.144 12.2635 213.157 11.9645H213.394V11.4263H205.047V11.9645H205.284C207.296 12.2635 207.296 13.4595 207.296 14.8349V26.496Z" fill="white"/>
<path fill-rule="evenodd" clip-rule="evenodd" d="M222.801 26.4819V27.9815C222.801 29.661 222.151 30.4408 220.557 30.5607V31.1006H228.826V30.5607C227.29 30.4408 226.64 29.661 226.64 27.9815V12.5659H229.535C231.366 12.5659 232.429 13.8856 233.019 14.9652L233.728 16.1649H234.26L232.783 11.4263H216.599L215.182 16.1649H215.654L216.363 14.9652C217.013 13.8856 218.076 12.5659 219.848 12.5659H222.801V26.4819Z" fill="white"/>
<path fill-rule="evenodd" clip-rule="evenodd" d="M245.131 26.4356L245.726 27.9305C246.379 29.6047 246.023 30.4419 244.596 30.5615V31.0996H252.145V30.5615C250.54 30.4419 250.065 29.6047 249.411 27.9305L248.816 26.4356L244.775 16.0313L244.299 14.8354L242.813 10.8291H242.456L235.562 27.9903C235.502 28.2295 235.383 28.4686 235.324 28.648C235.023 29.1634 234.61 29.6035 234.116 29.9349C233.622 30.2664 233.059 30.4806 232.471 30.5615V31.0996H238.474V30.5615C237.464 30.5017 236.215 30.2625 236.572 28.8872L236.869 27.9903L238.652 23.5056H244.002L245.131 26.4356ZM239.128 22.3097L241.387 16.8086L243.526 22.3097H239.128Z" fill="white"/>
<path fill-rule="evenodd" clip-rule="evenodd" d="M188.986 12.6313L188.272 10.7188C187.44 8.62703 187.856 7.55126 189.7 7.37197V6.65479H180.005V7.37197C182.027 7.55126 182.681 8.62703 183.455 10.7188L184.228 12.6313L189.402 26.0186L189.997 27.5127L191.365 31.0986H192.971L201.119 10.659L201.476 9.82233C201.854 9.17423 202.37 8.61831 202.987 8.19461C203.604 7.7709 204.307 7.48995 205.045 7.37197V6.65479H197.491V7.37197C198.8 7.43173 200.346 7.79032 199.93 9.46374C199.811 9.82233 199.692 10.2407 199.514 10.659L193.804 25.0026L188.986 12.6313Z" fill="white"/>
<path fill-rule="evenodd" clip-rule="evenodd" d="M45.2501 0.429277C50.7239 0.429277 60.8687 8.34781 56.5627 18.4659C53.2054 26.1645 42.1118 29.2439 31.6751 30.2704L29.9965 34.2297L29.8505 34.6696C29.7045 34.9629 29.9235 35.4028 31.6021 35.6961V36.356H20.8735L18.538 30.4904C8.53915 29.9771 2.26251 27.8509 0 26.6778L4.96292 23.2317C7.73632 25.5046 12.4073 27.1177 17.5162 27.9242L9.12301 6.66146C8.68372 5.46038 8.04182 4.34427 7.22543 3.36207C6.52482 2.66692 5.58267 2.27255 4.598 2.26227H3.86816V0.355957H20.2166V2.18895C19.2678 2.26227 18.0271 2.33559 17.5892 3.28875C17.1513 4.2419 17.4432 5.04842 18.0271 6.58814L25.3255 24.8448L32.7699 6.4415L33.2078 4.90178C33.7186 2.77551 32.186 2.18895 30.5074 2.18895V0.355957H43.8634L32.6239 27.9242C41.0171 26.6044 51.7457 23.0118 51.9647 15.1665C52.0377 10.4741 46.8558 7.39465 43.0606 6.14822L45.2501 0.429277ZM25.3985 30.5637H19.4138L21.4573 35.6961H22.0412C22.3758 35.6488 22.6973 35.5334 22.986 35.3569C23.2746 35.1804 23.5243 34.9465 23.7198 34.6696L24.0118 34.0097L25.3985 30.5637ZM18.465 28.0708C21.0247 28.4608 23.6127 28.6324 26.2013 28.5841L37.3679 1.08915H31.3102V1.60239C32.6239 1.60239 33.7187 2.18895 34.0106 3.28875C34.2016 4.3837 34.0486 5.51124 33.5727 6.51482L25.1795 27.4109H24.3037L16.0565 6.66146C15.4726 5.12174 15.3267 3.94863 15.6916 3.14211C16.0565 2.33559 16.8593 1.82235 18.173 1.60239V1.08915H4.598V1.60239C8.10124 1.60239 9.12302 4.6085 9.92584 6.58814L18.465 28.0708Z" fill="#8D5287"/>
</svg>
