<svg width="88" height="33" viewBox="0 0 88 33" fill="none" xmlns="http://www.w3.org/2000/svg">
<path d="M87.483 25.4305C86.9966 25.4305 86.267 25.8437 86.0238 25.9263C85.4564 26.009 84.7268 25.761 84.3215 22.5379C84.0783 20.6371 84.3215 18.6537 84.4025 16.6702C84.4025 16.1744 79.3766 16.9182 79.3766 18.4884C79.2955 20.8851 78.9713 23.3644 79.5387 25.6784C79.5387 25.761 79.5387 25.761 79.6198 25.8437C77.1879 26.5048 74.756 25.1825 73.8643 22.5379C73.6211 21.7941 73.54 20.9677 73.54 20.1413C73.54 19.8933 73.6211 18.3231 73.7832 17.8272C77.1879 17.1661 80.4304 16.0091 83.4298 14.3562C83.754 14.1909 84.5647 13.7777 84.4836 13.2818C83.5919 6.25713 76.7015 7.57943 71.9188 9.81081C70.7028 10.3893 70.3786 10.7199 70.4596 11.5463C70.5407 12.2901 71.3513 12.4554 71.9998 12.2901C72.8105 12.0422 73.2158 11.1331 74.1885 10.7199C77.35 9.2323 78.8092 11.7116 79.3766 14.5215C77.4311 15.3479 71.9998 16.3397 70.1354 16.6702C69.3247 16.8355 69.1626 17.414 69.0005 17.9099C68.7573 19.0669 68.5952 20.2239 68.5952 21.3809C68.5141 22.7859 68.352 25.5131 67.136 25.6784C65.9201 25.9263 66.1632 20.4718 66.1632 19.3148C66.2443 16.6702 66.4875 14.1909 65.9201 11.5463C65.0284 7.41414 60.4077 7.99265 57.0841 9.48023C55.3007 7.41414 51.815 7.74471 48.6535 8.6538C47.8429 8.90173 45.8163 9.39759 45.6542 10.472C45.0057 16.8355 44.5193 23.695 45.5731 30.0585C41.6821 28.5709 38.3585 24.3561 37.4668 20.1413C40.8714 19.6454 43.8708 18.3231 43.4655 14.1083C42.7359 6.83563 35.197 6.17448 28.3877 9.2323C27.6581 9.56288 27.4149 10.0587 27.1717 11.1331C26.1989 14.7694 25.5504 21.6289 26.5232 27.3313C26.6043 27.7445 27.6581 28.323 29.2793 28.323C30.9006 28.323 32.0355 27.9098 31.9544 27.3313C30.2521 20.5545 31.2249 12.8686 32.1166 9.97609C39.1691 9.31494 38.6827 16.8355 38.6017 17.9099C38.4395 18.9843 37.0614 19.1495 36.6561 17.9925C36.2508 16.9182 32.1166 17.7446 32.1976 19.976C32.4408 27.9924 40.0608 33.7775 47.5997 32.6205C48.1672 32.5378 51.4097 31.7114 51.2476 30.7197C49.4642 24.2735 49.6263 17.3314 50.2748 10.7199C55.3818 8.40586 53.031 23.6123 52.9499 27.4966C52.9499 27.7445 53.6795 28.1577 55.5439 28.1577C57.2463 28.1577 57.9758 27.9924 57.9758 27.2486C58.0569 23.9429 58.138 19.976 58.138 16.3397C58.138 15.2653 58.219 12.3728 57.5705 11.1331C61.6237 9.14966 61.2184 16.8355 61.1373 18.3231C61.1373 20.9677 60.4077 25.2652 62.5154 27.4139C64.1367 29.0668 67.8656 28.1577 69.8922 26.2569C70.2975 26.7528 70.8649 27.2486 71.5134 27.5792C73.9453 28.9841 77.35 28.323 80.2683 27.166C81.4843 28.1577 83.5108 28.0751 85.1321 27.6618C85.9427 27.4966 87.4019 27.0007 87.8883 26.0916C88.1315 25.761 87.9693 25.4305 87.483 25.4305Z" fill="#8D9BB2"/>
<path d="M24.2528 24.2741C24.1718 23.5303 23.1179 23.5303 22.5505 23.6129C21.4156 23.7782 21.0103 25.1005 19.5511 25.7617C18.6594 26.1749 17.5246 26.2575 16.795 26.0096C14.6063 25.2658 14.1199 23.4476 13.7956 21.4642C13.3903 18.5717 13.5524 14.77 14.5252 11.9602C14.7684 11.2164 10.7152 10.2246 9.74245 12.6213C8.04012 17.0014 7.39161 23.9435 11.2016 27.2492C14.282 29.8938 19.0648 28.3236 22.4694 26.1749C23.1179 25.7617 24.3339 24.8526 24.2528 24.2741Z" fill="#8D9BB2"/>
<path d="M4.63407 7.5791C6.5796 7.0006 6.82279 6.67002 6.82279 6.09152C6.82279 4.68657 6.98491 3.28163 7.71449 2.20726C8.68725 2.12462 10.0653 2.45519 11.2002 2.70313C12.4972 2.95106 13.3889 2.62048 14.1996 2.20726C14.2806 2.20726 16.3072 0.884965 15.4966 0.719677C9.66001 -1.09848 2.04004 0.306459 2.04004 7.49646C2.04004 8.07497 2.76961 8.15761 4.63407 7.5791Z" fill="#8D9BB2"/>
<path d="M6.90484 10.225C11.6065 9.15065 17.281 8.40686 19.2265 13.3655C19.6318 14.3572 19.7939 15.4316 19.7939 16.5059C19.7939 17.415 19.5507 18.1588 18.1727 17.9109C17.6052 17.8282 16.1461 17.0844 15.3354 17.5803C14.5248 18.0762 14.6869 20.0596 15.4976 19.977C18.2537 19.8117 24.4146 18.9852 24.8199 15.2663C25.0631 12.8696 24.6577 10.7209 22.388 8.90272C18.3348 5.59697 7.31016 7.99364 0.825077 10.0597C0.0955053 10.3077 -0.228749 11.1341 0.176569 11.5473C0.66295 11.9605 1.8789 11.4647 1.79784 11.5473C1.23039 15.5969 1.23039 24.1918 1.63571 28.4066C1.63571 28.7372 2.20316 28.9025 3.82443 28.9025C5.4457 28.9025 6.66165 28.4893 6.58059 27.8281C6.41846 22.5389 5.93208 15.6795 6.90484 10.225Z" fill="#8D9BB2"/>
</svg>
