<svg width="26" height="15" viewBox="0 0 26 15" fill="none" xmlns="http://www.w3.org/2000/svg">
<path fill-rule="evenodd" clip-rule="evenodd" d="M12.8309 13.9384H14.3306C14.3306 13.9384 14.7717 13.8502 15.0363 13.6737C15.2128 13.4091 15.2128 13.0562 15.2128 13.0562C15.2128 13.0562 15.2128 11.1154 16.0949 10.7625C16.9771 10.4979 18.124 12.7033 19.359 13.4973C20.3294 14.1148 21.0351 14.0266 21.0351 14.0266L24.2992 13.9384C24.2992 13.9384 26.0635 13.8502 25.1814 12.4387C25.0931 12.3505 24.7403 11.4683 22.7113 9.61572C20.6823 7.67493 20.9469 8.0278 23.417 4.67553C24.9167 2.64653 25.5342 1.41148 25.3578 0.882176C25.1814 0.35287 24.0345 0.529306 24.0345 0.529306H20.3294C20.3294 0.529306 20.0647 0.529305 19.8883 0.617522C19.7119 0.70574 19.5354 1.05861 19.5354 1.05861C19.5354 1.05861 18.9179 2.64653 18.124 3.96979C16.4478 6.79276 15.8303 6.96919 15.5656 6.79276C14.9481 6.35167 15.1246 5.11662 15.1246 4.32266C15.1246 1.58792 15.5656 0.441087 14.3306 0.176434C13.8895 0.0882166 13.6249 0 12.5662 0C11.243 0 10.0962 -3.41782e-07 9.47863 0.35287C9.03754 0.529305 8.77289 1.05861 8.94932 1.05861C9.21397 1.05861 9.74328 1.23505 10.0079 1.58792C10.3608 2.11722 10.3608 3.26405 10.3608 3.26405C10.3608 3.26405 10.5372 6.43989 9.8315 6.88097C9.30219 7.14563 8.68467 6.61632 7.18497 4.05801C6.39101 2.73475 5.8617 1.32326 5.8617 1.32326C5.8617 1.32326 5.77349 1.05861 5.59705 0.882176C5.3324 0.705741 5.06774 0.617522 5.06774 0.617522H1.53904C1.53904 0.617522 1.00973 0.617523 0.833298 0.882176C0.656863 1.05861 0.833298 1.4997 0.833298 1.4997C0.833298 1.4997 3.56804 7.93959 6.74388 11.2036C9.56684 14.203 12.8309 13.9384 12.8309 13.9384Z" fill="#8D9BB2"/>
</svg>
