<svg width="22" height="22" viewBox="0 0 22 22" fill="none" xmlns="http://www.w3.org/2000/svg">
<path d="M10.5861 0C7.67493 0 7.32206 3.36523e-07 6.26345 0.088218C5.11662 0.176436 4.41088 0.35287 3.70514 0.617523C2.9994 0.882176 2.38188 1.23505 1.85257 1.85257C1.23505 2.47009 0.882176 2.9994 0.617523 3.70514C0.35287 4.41088 0.176436 5.11662 0.088218 6.26345C3.36523e-07 7.32206 0 7.67493 0 10.5861C0 13.4973 3.36523e-07 13.8502 0.088218 14.9088C0.176436 16.0556 0.35287 16.7613 0.617523 17.4671C0.882176 18.1728 1.23505 18.7904 1.85257 19.3197C2.47009 19.9372 2.9994 20.2901 3.70514 20.5547C4.41088 20.8194 5.11662 20.9958 6.26345 21.084C7.32206 21.1722 7.67493 21.1722 10.5861 21.1722C13.4973 21.1722 13.8502 21.1722 14.9088 21.084C16.0556 20.9958 16.7613 20.8194 17.4671 20.5547C18.1728 20.2901 18.7904 19.9372 19.3197 19.3197C19.9372 18.7021 20.2901 18.1728 20.5547 17.4671C20.8194 16.7613 20.9958 16.0556 21.084 14.9088C21.1722 13.8502 21.1722 13.4973 21.1722 10.5861C21.1722 7.67493 21.1722 7.32206 21.084 6.26345C20.9958 5.11662 20.8194 4.41088 20.5547 3.70514C20.2901 2.9994 19.9372 2.38188 19.3197 1.85257C18.7021 1.23505 18.1728 0.882176 17.4671 0.617523C16.7613 0.35287 16.0556 0.176436 14.9088 0.088218C13.8502 3.36523e-07 13.4973 0 10.5861 0Z" fill="#8D9BB2"/>
<path d="M10.5867 5.11426C7.58728 5.11426 5.11719 7.58435 5.11719 10.5838C5.11719 13.5831 7.58728 16.0532 10.5867 16.0532C13.5861 16.0532 16.0562 13.5831 16.0562 10.5838C16.0562 7.58435 13.5861 5.11426 10.5867 5.11426ZM10.5867 14.1125C8.64589 14.1125 7.05798 12.5245 7.05798 10.5838C7.05798 8.64296 8.64589 7.05505 10.5867 7.05505C12.5275 7.05505 14.1154 8.64296 14.1154 10.5838C14.1154 12.5245 12.5275 14.1125 10.5867 14.1125Z" fill="white"/>
<path d="M16.2311 6.17468C16.9132 6.17468 17.4662 5.62173 17.4662 4.93964C17.4662 4.25754 16.9132 3.70459 16.2311 3.70459C15.549 3.70459 14.9961 4.25754 14.9961 4.93964C14.9961 5.62173 15.549 6.17468 16.2311 6.17468Z" fill="white"/>
</svg>
