<svg width="24" height="24" viewBox="0 0 24 24" fill="none" xmlns="http://www.w3.org/2000/svg">
<path fill-rule="evenodd" clip-rule="evenodd" d="M1.64541 0.285916C1.269 -0.0953053 0.658718 -0.0953052 0.282308 0.285916C-0.0941027 0.667137 -0.0941024 1.28522 0.282308 1.66644L10.685 12.2021L0.681561 22.3334C0.30515 22.7146 0.305151 23.3327 0.681561 23.7139C1.05797 24.0952 1.66825 24.0952 2.04466 23.7139L12.0481 13.5826L21.9551 23.6162C22.3315 23.9974 22.9417 23.9974 23.3182 23.6162C23.6946 23.235 23.6946 22.6169 23.3182 22.2356L13.4112 12.2021L23.7174 1.7642C24.0938 1.38298 24.0938 0.764894 23.7174 0.383673C23.341 0.00245179 22.7307 0.00245203 22.3543 0.383673L12.0481 10.8216L1.64541 0.285916Z" fill="#8D5287"/>
</svg>
