<svg width="373" height="335" viewBox="0 0 373 335" fill="none" xmlns="http://www.w3.org/2000/svg">
<path d="M319.053 60.2561C302.073 31.327 293.582 16.8624 279.731 8.9312C265.879 1 249.107 1 215.563 1H157.437C123.893 1 107.121 1 93.2693 8.9312C79.4176 16.8624 70.9275 31.3269 53.9474 60.256L26.654 106.756C9.266 136.38 0.571977 151.192 0.571977 167.5C0.571977 183.808 9.26599 198.62 26.654 228.244L53.9474 274.744C70.9275 303.673 79.4176 318.138 93.2693 326.069C107.121 334 123.893 334 157.437 334H215.563C249.107 334 265.879 334 279.731 326.069C293.582 318.138 302.073 303.673 319.053 274.744L346.346 228.244C363.734 198.62 372.428 183.808 372.428 167.5C372.428 151.192 363.734 136.38 346.346 106.756L319.053 60.2561Z" stroke="white" stroke-miterlimit="10"/>
</svg>
