<svg width="24" height="24" viewBox="0 0 24 24" fill="none" xmlns="http://www.w3.org/2000/svg">
<path class="fill" d="M12 0C8.7 0 8.3 3.8147e-07 7.1 0.1C5.8 0.2 5 0.4 4.2 0.7C3.4 1 2.7 1.4 2.1 2.1C1.4 2.8 1 3.4 0.7 4.2C0.4 5 0.2 5.8 0.1 7.1C3.8147e-07 8.3 0 8.7 0 12C0 15.3 3.8147e-07 15.7 0.1 16.9C0.2 18.2 0.4 19 0.7 19.8C1 20.6 1.4 21.3 2.1 21.9C2.8 22.6 3.4 23 4.2 23.3C5 23.6 5.8 23.8 7.1 23.9C8.3 24 8.7 24 12 24C15.3 24 15.7 24 16.9 23.9C18.2 23.8 19 23.6 19.8 23.3C20.6 23 21.3 22.6 21.9 21.9C22.6 21.2 23 20.6 23.3 19.8C23.6 19 23.8 18.2 23.9 16.9C24 15.7 24 15.3 24 12C24 8.7 24 8.3 23.9 7.1C23.8 5.8 23.6 5 23.3 4.2C23 3.4 22.6 2.7 21.9 2.1C21.2 1.4 20.6 1 19.8 0.7C19 0.4 18.2 0.2 16.9 0.1C15.7 3.8147e-07 15.3 0 12 0Z" fill="#8D9BB2"/>
<path d="M12.0003 5.79736C8.60029 5.79736 5.80029 8.59736 5.80029 11.9974C5.80029 15.3974 8.60029 18.1974 12.0003 18.1974C15.4003 18.1974 18.2003 15.3974 18.2003 11.9974C18.2003 8.59736 15.4003 5.79736 12.0003 5.79736ZM12.0003 15.9974C9.80029 15.9974 8.00029 14.1974 8.00029 11.9974C8.00029 9.79736 9.80029 7.99736 12.0003 7.99736C14.2003 7.99736 16.0003 9.79736 16.0003 11.9974C16.0003 14.1974 14.2003 15.9974 12.0003 15.9974Z" fill="white"/>
<path d="M18.399 6.99946C19.1722 6.99946 19.799 6.37266 19.799 5.59946C19.799 4.82626 19.1722 4.19946 18.399 4.19946C17.6258 4.19946 16.999 4.82626 16.999 5.59946C16.999 6.37266 17.6258 6.99946 18.399 6.99946Z" fill="white"/>
</svg>
