<svg width="1920" height="1097" viewBox="0 0 1920 1097" fill="none" xmlns="http://www.w3.org/2000/svg">
    <g opacity="0.8">
        <path class="reviews__path reviews__path_5" d="M0.5 1C109 241.461 401 316.574 639 316.574C906 316.574 920 115.621 820 164.396C756 118.548 738 226.828 811 307.795C1092 619.467 1538 27.8263 1921 193.661" stroke="#3B5E82" stroke-miterlimit="10"/>
        <path class="reviews__path reviews__path_4" d="M0.400391 137.082C129.4 341.547 453.2 392.566 696 349.741C961.2 303.015 937.2 96.1109 822 152.495C720.8 96.1109 721.1 263.604 841 358.911C1156.1 609.419 1561.2 94.7452 1921 374.129" stroke="#5B7A98" stroke-miterlimit="10"/>
        <path class="reviews__path reviews__path_3" d="M0.299805 273.165C149.8 441.634 505.2 469.631 753 382.909C1016.2 290.724 954.4 76.6011 824 140.594C685.6 73.6746 699.6 303.015 871 410.028C1200.6 615.761 1584.4 161.665 1921 554.597" stroke="#7B96AE" stroke-miterlimit="10"/>
        <path class="reviews__path reviews__path_2" d="M0.200195 409.247C170.2 541.72 557.5 547.768 810 416.075C1071.5 279.603 971.6 57.0909 826 128.693C650.4 51.2379 674.8 347.4 901 461.143C1239.2 631.173 1607.6 228.584 1921 735.064" stroke="#9BB1C3" stroke-miterlimit="10"/>
        <path class="reviews__path reviews__path_1" d="M0.0996094 545.33C190.6 641.807 610.4 626.589 867 449.243C1127.4 269.165 988.8 37.5814 828 116.792C621.4 31.2406 648 397.639 931 512.261C1276.7 652.245 1630.8 295.504 1921 915.533" stroke="#BBCDD9" stroke-miterlimit="10"/>
        <path class="reviews__path reviews__path_0" d="M0 681.412C211 741.893 664 705.799 924 482.41C1184 259.02 1006 18.0712 830 104.891C591.4 12.7059 620 454.12 961 563.376C1315.5 676.925 1654 362.423 1921 1096" stroke="#DBE9EF" stroke-miterlimit="10"/>
    </g>
</svg>