<svg width="24" height="24" viewBox="0 0 24 24" fill="none" xmlns="http://www.w3.org/2000/svg">
<path fill-rule="evenodd" clip-rule="evenodd" d="M1.64549 0.28591C1.26906 -0.0953033 0.658752 -0.0953035 0.282322 0.28591C-0.0941076 0.667123 -0.0941073 1.28519 0.282322 1.66641L10.6859 12.2022L0.681596 22.3336C0.305166 22.7148 0.305166 23.3328 0.681596 23.7141C1.05803 24.0953 1.66834 24.0953 2.04477 23.7141L12.049 13.5826L21.9562 23.6157C22.3326 23.9969 22.9429 23.9969 23.3193 23.6157C23.6958 23.2345 23.6958 22.6164 23.3193 22.2352L13.4122 12.2022L23.7186 1.76476C24.095 1.38354 24.095 0.765473 23.7186 0.384259C23.3422 0.0030455 22.7319 0.00304579 22.3554 0.384259L12.049 10.8217L1.64549 0.28591Z" fill="#B3BFCF"/>
</svg>
