<svg width="55" height="55" viewBox="0 0 55 55" fill="none" xmlns="http://www.w3.org/2000/svg">
<path d="M50 25.5C50 20.6544 48.5631 15.9175 45.871 11.8885C43.1789 7.85952 39.3525 4.7193 34.8757 2.86495C30.399 1.0106 25.4728 0.525423 20.7203 1.47076C15.9678 2.4161 11.6023 4.7495 8.17588 8.17588C4.7495 11.6023 2.4161 15.9678 1.47076 20.7203C0.525423 25.4728 1.0106 30.399 2.86495 34.8757C4.7193 39.3525 7.85953 43.1789 11.8885 45.871C15.9175 48.5631 20.6544 50 25.5 50" stroke="#7C8F99" stroke-width="2" stroke-linecap="round"/>
<path d="M44 54C44 54.5523 44.4477 55 45 55C45.5523 55 46 54.5523 46 54H44ZM45 35L45.7071 34.2929C45.3166 33.9024 44.6834 33.9024 44.2929 34.2929L45 35ZM35.2929 43.2929C34.9024 43.6834 34.9024 44.3166 35.2929 44.7071C35.6834 45.0976 36.3166 45.0976 36.7071 44.7071L35.2929 43.2929ZM53.2929 44.7071C53.6834 45.0976 54.3166 45.0976 54.7071 44.7071C55.0976 44.3166 55.0976 43.6834 54.7071 43.2929L53.2929 44.7071ZM46 54V35H44V54H46ZM44.2929 34.2929L35.2929 43.2929L36.7071 44.7071L45.7071 35.7071L44.2929 34.2929ZM44.2929 35.7071L53.2929 44.7071L54.7071 43.2929L45.7071 34.2929L44.2929 35.7071Z" fill="#5CCB7E"/>
<circle cx="17.5" cy="20.5" r="2.5" fill="#7C8F99"/>
<circle cx="34.5" cy="20.5" r="2.5" fill="#7C8F99"/>
<path d="M35.1924 33C33.9852 34.2072 32.5521 35.1647 30.9749 35.818C29.3977 36.4714 27.7072 36.8076 26 36.8076C24.2928 36.8076 22.6024 36.4714 21.0251 35.818C19.4479 35.1647 18.0148 34.2072 16.8076 33" stroke="#7C8F99" stroke-width="2" stroke-linecap="round"/>
</svg>
