<svg width="43" height="42" viewBox="0 0 43 42" fill="none" xmlns="http://www.w3.org/2000/svg">
<path d="M19.7014 39.3766C20.3577 39.3766 21.014 39.3438 21.6703 39.2782V35.3405C18.4971 35.7403 15.2775 35.1646 12.4395 33.6901C9.60148 32.2155 7.27961 29.9119 5.78266 27.0856C4.2857 24.2594 3.6846 21.0444 4.05928 17.8682C4.43396 14.692 5.76668 11.7051 7.88019 9.30474C9.99371 6.90439 12.7879 5.20432 15.8911 4.43061C18.9943 3.6569 22.2595 3.84622 25.2526 4.97338C28.2456 6.10055 30.8245 8.11216 32.6465 10.7407C34.4684 13.3692 35.447 16.4901 35.4521 19.6883C35.4521 20.128 35.4521 20.5677 35.393 21.0009H39.3307C39.3307 20.5677 39.3766 20.128 39.3766 19.6883C39.3766 15.7938 38.2216 11.9867 36.0576 8.74871C33.8937 5.5107 30.818 2.98721 27.2197 1.49744C23.6213 0.00766039 19.662 -0.381467 15.8425 0.379276C12.023 1.14002 8.51488 3.01645 5.76194 5.77122C3.009 8.526 1.13491 12.0353 0.376715 15.8554C-0.38148 19.6754 0.0102875 23.6345 1.50246 27.2318C2.99464 30.8291 5.52018 33.9031 8.75963 36.0649C11.9991 38.2267 15.8069 39.3792 19.7014 39.3766Z" fill="#8D9BB2"/>
<path d="M35.4508 35.2814V24.9385H31.5131V35.2814L27.6542 31.4225L24.8716 34.2051L32.0906 41.4242C32.4598 41.7929 32.9602 42 33.4819 42C34.0037 42 34.5041 41.7929 34.8732 41.4242L42.0923 34.2051L39.3097 31.4225L35.4508 35.2814Z" fill="#BF5F5C"/>
<path d="M12.8102 19.0319C14.0787 19.0319 15.1071 18.0035 15.1071 16.735C15.1071 15.4664 14.0787 14.438 12.8102 14.438C11.5416 14.438 10.5132 15.4664 10.5132 16.735C10.5132 18.0035 11.5416 19.0319 12.8102 19.0319Z" fill="#8D9BB2"/>
<path d="M26.5914 19.0319C27.86 19.0319 28.8884 18.0035 28.8884 16.735C28.8884 15.4664 27.86 14.438 26.5914 14.438C25.3228 14.438 24.2944 15.4664 24.2944 16.735C24.2944 18.0035 25.3228 19.0319 26.5914 19.0319Z" fill="#8D9BB2"/>
<path d="M25.607 25.4046C24.049 23.8473 21.9362 22.9724 19.7333 22.9724C17.5304 22.9724 15.4177 23.8473 13.8596 25.4046L13.0918 26.1725L15.8744 28.9551L16.6423 28.1872C17.4617 27.3693 18.5722 26.9099 19.73 26.9099C20.8879 26.9099 21.9984 27.3693 22.8178 28.1872L23.5857 28.9551L26.3683 26.1725L25.607 25.4046Z" fill="#8D9BB2"/>
</svg>
