<svg width="43" height="42" viewBox="0 0 43 42" fill="none" xmlns="http://www.w3.org/2000/svg">
<path d="M12.8101 19.0312C14.0786 19.0312 15.1069 18.0029 15.1069 16.7344C15.1069 15.4658 14.0786 14.4375 12.8101 14.4375C11.5415 14.4375 10.5132 15.4658 10.5132 16.7344C10.5132 18.0029 11.5415 19.0312 12.8101 19.0312Z" fill="#8D9BB2"/>
<path d="M26.5913 19.0312C27.8598 19.0312 28.8882 18.0029 28.8882 16.7344C28.8882 15.4658 27.8598 14.4375 26.5913 14.4375C25.3228 14.4375 24.2944 15.4658 24.2944 16.7344C24.2944 18.0029 25.3228 19.0312 26.5913 19.0312Z" fill="#8D9BB2"/>
<path d="M19.7006 28.8746C20.792 28.8775 21.8731 28.6638 22.8813 28.2459C23.8895 27.828 24.8048 27.2141 25.574 26.44L26.3419 25.6721L23.5594 22.8896L22.7915 23.6575C21.9721 24.4754 20.8617 24.9347 19.7039 24.9347C18.5461 24.9347 17.4356 24.4754 16.6162 23.6575L15.8484 22.8896L13.0659 25.6721L13.8337 26.44C14.6022 27.2134 15.5164 27.8267 16.5234 28.2446C17.5304 28.6625 18.6103 28.8767 19.7006 28.8746Z" fill="#8D9BB2"/>
<path d="M19.7006 39.375C20.3569 39.375 21.0131 39.3422 21.6694 39.2766V35.3391C18.4964 35.7388 15.2769 35.1632 12.439 33.6887C9.60108 32.2141 7.27931 29.9107 5.78242 27.0845C4.28552 24.2584 3.68444 21.0435 4.05911 17.8674C4.43378 14.6914 5.76644 11.7046 7.87987 9.30435C9.99329 6.9041 12.7873 5.2041 15.8904 4.43043C18.9935 3.65675 22.2586 3.84606 25.2515 4.97318C28.2444 6.1003 30.8233 8.11182 32.6451 10.7402C34.467 13.3687 35.4455 16.4894 35.4506 19.6875C35.4506 20.1272 35.4506 20.5669 35.3916 21H39.3291C39.3291 20.5669 39.375 20.1272 39.375 19.6875C39.375 15.7931 38.22 11.9862 36.0562 8.74835C33.8923 5.51048 30.8167 2.98709 27.2186 1.49737C23.6204 0.00766008 19.6612 -0.381451 15.8418 0.37926C12.0225 1.13997 8.51453 3.01633 5.7617 5.77099C3.00888 8.52565 1.13486 12.0349 0.3767 15.8547C-0.381464 19.6746 0.0102871 23.6335 1.5024 27.2307C2.99451 30.8279 5.51995 33.9017 8.75927 36.0634C11.9986 38.2252 15.8063 39.3776 19.7006 39.375Z" fill="#8D9BB2"/>
<path d="M33.4816 24.9375C32.9596 24.938 32.4592 25.1457 32.0903 25.515L24.8716 32.7337L27.6541 35.5163L31.5128 31.6575V42H35.4503V31.6575L39.3091 35.5163L42.0916 32.7337L34.8728 25.515C34.504 25.1457 34.0036 24.938 33.4816 24.9375Z" fill="#76A484"/>
</svg>
