<svg width="55" height="55" viewBox="0 0 55 55" fill="none" xmlns="http://www.w3.org/2000/svg">
<path d="M50 25.5C50 20.6544 48.5631 15.9175 45.871 11.8885C43.1789 7.85952 39.3525 4.7193 34.8757 2.86495C30.399 1.0106 25.4728 0.525423 20.7203 1.47076C15.9678 2.4161 11.6023 4.7495 8.17588 8.17588C4.7495 11.6023 2.4161 15.9678 1.47076 20.7203C0.525423 25.4728 1.0106 30.399 2.86495 34.8757C4.7193 39.3525 7.85953 43.1789 11.8885 45.871C15.9175 48.5631 20.6544 50 25.5 50" stroke="#7C8F99" stroke-width="2" stroke-linecap="round"/>
<path d="M46 35C46 34.4477 45.5523 34 45 34C44.4477 34 44 34.4477 44 35L46 35ZM45 54L44.2929 54.7071C44.6834 55.0976 45.3166 55.0976 45.7071 54.7071L45 54ZM54.7071 45.7071C55.0976 45.3166 55.0976 44.6834 54.7071 44.2929C54.3166 43.9024 53.6834 43.9024 53.2929 44.2929L54.7071 45.7071ZM36.7071 44.2929C36.3166 43.9024 35.6834 43.9024 35.2929 44.2929C34.9024 44.6834 34.9024 45.3166 35.2929 45.7071L36.7071 44.2929ZM44 35L44 54L46 54L46 35L44 35ZM45.7071 54.7071L54.7071 45.7071L53.2929 44.2929L44.2929 53.2929L45.7071 54.7071ZM45.7071 53.2929L36.7071 44.2929L35.2929 45.7071L44.2929 54.7071L45.7071 53.2929Z" fill="#C74F6C"/>
<circle cx="17.5" cy="20.5" r="2.5" fill="#7C8F99"/>
<circle cx="34.5" cy="20.5" r="2.5" fill="#7C8F99"/>
<path d="M16.8076 34.8076C18.0148 33.6005 19.4479 32.6429 21.0251 31.9896C22.6023 31.3363 24.2928 31 26 31C27.7072 31 29.3976 31.3363 30.9749 31.9896C32.5521 32.6429 33.9852 33.6005 35.1924 34.8076" stroke="#7C8F99" stroke-width="2" stroke-linecap="round"/>
</svg>
