<svg width="444" height="444" viewBox="0 0 444 444" fill="none" xmlns="http://www.w3.org/2000/svg">
    <path opacity="0.6" class="sliderEquipWarranty__visible" d="M299.691 356.567C281.18 367.254 267.326 375.253 255.566 380.65C243.815 386.044 234.188 388.824 224.14 389.095C222.713 389.134 221.285 389.134 219.858 389.095C209.81 388.824 200.183 386.044 188.432 380.65C176.672 375.253 162.818 367.254 144.307 356.567C125.796 345.879 111.942 337.88 101.387 330.395C90.8408 322.915 83.6194 315.968 78.361 307.402C77.6141 306.185 76.9002 304.948 76.2199 303.693C71.4304 294.856 69.0252 285.129 67.8206 272.256C66.615 259.372 66.6145 243.375 66.6145 222C66.6145 200.625 66.615 184.628 67.8206 171.744C69.0252 158.871 71.4304 149.144 76.2199 140.307C76.9002 139.052 77.6142 137.815 78.361 136.598C83.6194 128.032 90.8408 121.085 101.387 113.605C111.942 106.12 125.796 98.1205 144.307 87.433C162.818 76.7456 176.672 68.7474 188.432 63.3497C200.183 57.9562 209.81 55.1756 219.858 54.9049C221.285 54.8664 222.713 54.8664 224.14 54.9049C234.188 55.1756 243.815 57.9562 255.566 63.3497C267.326 68.7474 281.18 76.7456 299.691 87.433C318.203 98.1205 332.056 106.12 342.611 113.605C353.157 121.085 360.379 128.032 365.637 136.598C366.384 137.815 367.098 139.052 367.778 140.307C372.568 149.144 374.973 158.871 376.178 171.744C377.383 184.628 377.384 200.625 377.384 222C377.384 243.375 377.383 259.372 376.178 272.256C374.973 285.129 372.568 294.856 367.778 303.693C367.098 304.948 366.384 306.185 365.637 307.402C360.379 315.968 353.157 322.915 342.611 330.395C332.056 337.881 318.203 345.88 299.691 356.567Z" stroke="#7C8F99"/>
    <path class="sliderEquipWarranty__path sliderEquipWarranty__path_2" opacity="0.5" d="M141.507 337.465C126.858 329.007 115.902 322.682 107.601 316.732C99.3095 310.789 93.6998 305.245 89.7286 298.366C85.7573 291.488 83.7603 283.857 82.7595 273.705C81.7576 263.542 81.7571 250.891 81.7571 233.975L81.7571 210.024C81.7571 193.109 81.7576 180.458 82.7595 170.294C83.7602 160.142 85.7573 152.512 89.7286 145.633C93.6998 138.755 99.3095 133.21 107.601 127.267C115.902 121.318 126.858 114.992 141.507 106.534L162.249 94.5587C176.899 86.1008 187.855 79.7759 197.158 75.5619C206.45 71.3524 214.057 69.2667 221.999 69.2667C229.942 69.2667 237.549 71.3524 246.841 75.5619C256.144 79.7759 267.1 86.1008 281.749 94.5587L302.492 106.534C317.141 114.992 328.097 121.318 336.397 127.267C344.689 133.21 350.299 138.755 354.27 145.633C358.241 152.512 360.238 160.142 361.239 170.294C362.241 180.458 362.242 193.109 362.242 210.024L362.241 233.975C362.241 250.891 362.241 263.542 361.239 273.705C360.238 283.857 358.241 291.488 354.27 298.366C350.299 305.245 344.689 310.789 336.397 316.732C328.097 322.682 317.141 329.007 302.492 337.465L281.749 349.441C267.1 357.899 256.144 364.224 246.841 368.438C237.549 372.647 229.942 374.733 221.999 374.733C214.057 374.733 206.45 372.647 197.158 368.438C187.855 364.224 176.899 357.899 162.249 349.441L141.507 337.465Z" stroke="#7C8F99"/>
    <path class="sliderEquipWarranty__path sliderEquipWarranty__path_3" opacity="0.4" d="M206.723 327.958C195.442 327.958 187.018 327.957 180.252 327.291C173.498 326.625 168.437 325.298 163.879 322.666C159.321 320.034 155.641 316.315 151.687 310.798C147.726 305.273 143.514 297.977 137.874 288.208L122.598 261.749C116.958 251.98 112.746 244.684 109.941 238.492C107.14 232.309 105.759 227.262 105.759 221.999C105.759 216.736 107.14 211.69 109.941 205.507C112.746 199.315 116.958 192.019 122.598 182.249L137.874 155.791C143.514 146.022 147.726 138.726 151.687 133.201C155.641 127.684 159.321 123.964 163.879 121.333C168.437 118.701 173.498 117.374 180.252 116.708C187.018 116.041 195.442 116.041 206.723 116.041L237.274 116.041C248.555 116.041 256.979 116.041 263.745 116.708C270.499 117.374 275.56 118.701 280.118 121.333C284.676 123.964 288.356 127.684 292.31 133.201C296.271 138.726 300.483 146.022 306.123 155.791L321.399 182.249C327.039 192.019 331.251 199.315 334.056 205.507C336.857 211.69 338.238 216.736 338.238 221.999C338.238 227.262 336.857 232.309 334.056 238.492C331.251 244.684 327.039 251.98 321.399 261.749L306.123 288.208C300.483 297.977 296.271 305.273 292.31 310.798C288.356 316.315 284.676 320.034 280.118 322.666C275.56 325.298 270.499 326.625 263.745 327.291C256.979 327.957 248.555 327.958 237.274 327.958L206.723 327.958Z" stroke="#7C8F99"/>
    <path class="sliderEquipWarranty__path sliderEquipWarranty__path_4" opacity="0.3" d="M185.617 285.015C169.379 275.64 161.403 271.022 156.4 263.89C155.065 261.988 153.901 259.972 152.921 257.865C149.247 249.966 149.236 240.75 149.236 222C149.236 203.25 149.247 194.034 152.921 186.135C153.901 184.028 155.065 182.012 156.4 180.11C161.403 172.978 169.379 168.36 185.617 158.985C201.855 149.61 209.842 145.012 218.52 144.245C220.835 144.04 223.163 144.04 225.478 144.245C234.155 145.012 242.142 149.61 258.38 158.985C274.618 168.36 282.594 172.978 287.597 180.11C288.932 182.012 290.096 184.028 291.076 186.135C294.751 194.034 294.762 203.25 294.762 222C294.762 240.75 294.751 249.966 291.076 257.865C290.096 259.972 288.932 261.988 287.598 263.89C282.594 271.022 274.618 275.64 258.38 285.015C242.142 294.39 234.155 298.988 225.478 299.755C223.163 299.96 220.835 299.96 218.52 299.755C209.842 298.988 201.855 294.39 185.617 285.015Z" stroke="#7C8F99"/>
    <path class="sliderEquipWarranty__path sliderEquipWarranty__path_5" opacity="0.2" d="M192.432 239.071C188.3 231.914 186.311 228.45 185.785 224.727C185.529 222.918 185.529 221.082 185.785 219.273C186.311 215.55 188.3 212.086 192.432 204.929C196.564 197.773 198.568 194.318 201.53 192.001C202.969 190.875 204.559 189.957 206.253 189.274C209.741 187.868 213.735 187.859 221.999 187.859C230.263 187.859 234.257 187.868 237.745 189.274C239.439 189.957 241.029 190.875 242.468 192.001C245.43 194.318 247.434 197.773 251.566 204.929C255.698 212.086 257.688 215.55 258.213 219.273C258.469 221.082 258.469 222.918 258.213 224.727C257.688 228.45 255.698 231.914 251.566 239.071C247.434 246.227 245.43 249.682 242.468 251.999C241.029 253.125 239.439 254.043 237.745 254.726C234.257 256.132 230.263 256.141 221.999 256.141C213.735 256.141 209.741 256.132 206.253 254.726C204.559 254.043 202.969 253.125 201.53 251.999C198.568 249.682 196.564 246.227 192.432 239.071Z" stroke="#7C8F99"/>
</svg>