<svg width="69" height="73" viewBox="0 0 69 73" fill="none" xmlns="http://www.w3.org/2000/svg">
<path d="M61.7988 46.0001C67.2988 21.1237 54.8665 21.1237 46.2988 21.1237C37.731 21.1237 23.7988 19.0001 31.2988 46.0001" stroke="#8D5287" stroke-width="2"/>
<path opacity="0.5" d="M64.7371 38C62.7525 39.9846 58.3865 44.1522 56.7988 44.946" stroke="#8D5287" stroke-width="2"/>
<path d="M67.2815 22.8225C67.2815 28.707 65.5761 37.7403 62.0426 45.2764C58.4793 52.876 53.2711 58.5369 46.4513 58.5369C39.6316 58.5369 34.4233 52.876 30.86 45.2764C27.3265 37.7403 25.6211 28.707 25.6211 22.8225C25.6211 11.26 35.0036 1 46.4513 1C57.899 1 67.2815 11.26 67.2815 22.8225Z" stroke="#8D5287" stroke-width="2"/>
<path d="M37.521 44.6528L26.6059 56.5602M24.6213 54.5757L28.5905 58.5448L15.6908 71.4445L11.7217 67.4753L24.6213 54.5757Z" stroke="#8D5287" stroke-width="2"/>
<path opacity="0.5" d="M13.706 69.4597C9.73709 73.4289 1.79883 73.4289 1.79883 64.4983C1.79883 55.5678 23.6287 49.6141 16.6827 38.699" stroke="#8D5287" stroke-width="2"/>
<circle cx="39.5054" cy="42.6682" r="4.46141" fill="#8D5287" stroke="#8D5287"/>
</svg>
