<svg width="259" height="287" viewBox="0 0 259 287" fill="none" xmlns="http://www.w3.org/2000/svg">
<path opacity="0.5" d="M169.25 269.473C159.481 275.113 152.185 279.325 145.992 282.13C139.81 284.931 134.763 286.312 129.5 286.312C124.237 286.312 119.19 284.931 113.008 282.13C106.815 279.325 99.5191 275.113 89.75 269.473L40.2792 240.911C30.5101 235.271 23.2147 231.058 17.6891 227.098C12.1724 223.144 8.45267 219.464 5.82117 214.906C3.18967 210.348 1.86246 205.287 1.19663 198.532C0.529733 191.767 0.529184 183.342 0.529185 172.062L0.52919 114.938C0.529191 103.658 0.529741 95.2333 1.19664 88.4678C1.86248 81.7133 3.18969 76.6519 5.82119 72.094C8.45269 67.5361 12.1724 63.856 17.6891 59.9021C23.2147 55.9419 30.5101 51.7292 40.2792 46.089L89.75 17.527C99.5191 11.8868 106.815 7.67513 113.008 4.86998C119.19 2.06935 124.237 0.688036 129.5 0.688036C134.763 0.688037 139.81 2.06935 145.992 4.86998C152.185 7.67516 159.481 11.8869 169.25 17.527L218.721 46.089C228.49 51.7292 235.785 55.9419 241.311 59.9022C246.828 63.856 250.547 67.5361 253.179 72.094C255.81 76.6519 257.138 81.7134 257.803 88.4679C258.47 95.2333 258.471 103.658 258.471 114.938L258.471 172.062C258.471 183.342 258.47 191.767 257.803 198.532C257.138 205.287 255.81 210.348 253.179 214.906C250.547 219.464 246.828 223.144 241.311 227.098C235.785 231.058 228.49 235.271 218.721 240.911L169.25 269.473Z" stroke="#7C8F99"/>
</svg>
