<svg width="255" height="367" viewBox="0 0 255 367" fill="none" xmlns="http://www.w3.org/2000/svg">
<path d="M97.7711 13.7254C105.095 9.50074 110.557 6.35069 115.192 4.25329C119.816 2.16042 123.58 1.13295 127.5 1.13295C131.42 1.13295 135.185 2.16042 139.809 4.25329C144.443 6.3507 149.905 9.50074 157.229 13.7254L224.729 52.66C232.063 56.8903 237.532 60.0455 241.673 63.0111C245.805 65.9702 248.582 68.7182 250.545 72.1168C252.508 75.5155 253.501 79.2938 254 84.3515C254.499 89.4202 254.5 95.7341 254.5 104.201L254.5 262.8C254.5 271.266 254.499 277.58 253.999 282.649C253.5 287.706 252.507 291.485 250.544 294.883C248.581 298.282 245.804 301.03 241.673 303.989C237.532 306.954 232.063 310.11 224.729 314.34L157.229 353.275C149.905 357.499 144.443 360.649 139.808 362.747C135.184 364.84 131.42 365.867 127.5 365.867C123.58 365.867 119.815 364.84 115.191 362.747C110.557 360.649 105.095 357.499 97.7705 353.275L30.2709 314.34C22.9369 310.11 17.4679 306.954 13.327 303.989C9.19506 301.03 6.41837 298.282 4.45525 294.883C2.49213 291.485 1.49913 287.706 1.0004 282.648C0.500604 277.58 0.500058 271.266 0.500077 262.799L0.500427 104.2C0.500446 95.734 0.501019 89.4201 1.00084 84.3514C1.49958 79.2937 2.49259 75.5154 4.45571 72.1168C6.41883 68.7182 9.19551 65.9702 13.3274 63.0111C17.4683 60.0456 22.9373 56.8904 30.2712 52.6601L97.7711 13.7254Z" stroke="#A9C2C9"/>
</svg>
