<svg width="235" height="261" viewBox="0 0 235 261" fill="none" xmlns="http://www.w3.org/2000/svg">
    <clipPath id="stageImg">
        <path d="M153 244.349C144.199 249.431 137.659 253.205 132.116 255.716C126.593 258.218 122.131 259.431 117.5 259.431C112.869 259.431 108.407 258.218 102.884 255.716C97.3409 253.205 90.8014 249.431 82 244.349L36.6535 218.169C27.8521 213.087 21.3138 209.311 16.3678 205.766C11.4398 202.234 8.15824 198.976 5.84266 194.965C3.52706 190.955 2.3464 186.484 1.75161 180.45C1.15466 174.394 1.15354 166.844 1.15354 156.681L1.15355 104.319C1.15355 94.1562 1.15466 86.6058 1.75162 80.55C2.34641 74.5162 3.52707 70.0453 5.84267 66.0346C8.15825 62.0239 11.4398 58.766 16.3678 55.234C21.3138 51.6891 27.8521 47.9129 36.6536 42.8314L82 16.6507C90.8015 11.5691 97.3409 7.79488 102.884 5.28398C108.407 2.78215 112.869 1.56923 117.5 1.56923C122.131 1.56923 126.593 2.78215 132.116 5.28399C137.659 7.79488 144.199 11.5691 153 16.6507L198.346 42.8314C207.148 47.913 213.686 51.6891 218.632 55.234C223.56 58.766 226.842 62.0239 229.157 66.0346C231.473 70.0453 232.654 74.5162 233.248 80.55C233.845 86.6058 233.846 94.1562 233.846 104.319L233.846 156.681C233.846 166.844 233.845 174.394 233.248 180.45C232.654 186.484 231.473 190.955 229.157 194.965C226.842 198.976 223.56 202.234 218.632 205.766C213.686 209.311 207.148 213.087 198.346 218.169L153 244.349Z" fill="white" stroke="#DBE9EF" stroke-width="2"/>
    </clipPath>
</svg>