<svg width="674" height="802" viewBox="0 0 674 802" fill="none" xmlns="http://www.w3.org/2000/svg">
<g opacity="0.15" filter="url(#filter0_f)">
<path d="M53.7549 285.637C56.0538 285.711 58.3839 285.948 60.7138 286.185C77.8414 285.908 91.3748 272.914 105.971 264.636C121.813 255.783 139.787 250.597 157.853 249.465C189.479 247.544 219.873 258.323 244.06 278.335C244.464 278.682 244.95 279.014 245.354 279.361C246.245 280.041 247.069 280.817 247.878 281.512C248.993 282.488 249.292 283.619 249.152 284.663C274.455 292.251 299.695 301.293 321.271 316.456C318.908 312.918 316.464 309.395 313.953 305.97C299.246 285.519 283.142 266.182 265.952 247.813C258.476 253.469 247.299 255.672 238.425 255.741C237.414 255.763 236.306 255.719 235.279 255.659C224.519 255.153 214.182 251.514 205.519 245.099C204.823 244.552 204.77 243.375 205.734 243.108C206.699 242.84 207.582 242.588 208.547 242.32C224.246 238.074 240.64 234.375 256.428 237.744C249.469 230.497 242.297 223.461 235.124 216.424C233.89 217.505 232.241 217.733 230.763 217.08C224.818 219.648 217.475 216.629 211.821 214.478C193.947 207.687 177.124 198.408 161.279 187.586C127.856 164.83 99.0059 136.289 68.3071 110.048C66.091 108.178 66.1004 105.548 67.5524 103.831C68.113 103.216 68.8524 102.652 69.7356 102.4C70.1286 102.24 70.6189 102.147 71.1401 102.218C140.441 100.369 220.183 128.174 238.19 203.122C238.504 204.335 238.266 205.313 237.818 206.076C238.04 206.797 238.164 207.452 238.206 208.123C238.279 208.957 238.256 209.724 238.15 210.508C239.911 212.209 241.657 213.829 243.418 215.531C235.512 193.453 251.941 164.475 260.243 144.415C260.644 143.406 262.029 143.567 262.313 144.616C262.658 145.993 263.003 147.369 263.267 148.761C265.96 153.593 267.785 158.76 269.022 163.953C269.6 166.557 270.081 169.095 270.348 171.843L270.363 171.925C271.025 177.651 271.018 183.419 270.586 189.183C270.512 190.13 270.437 191.077 270.281 192.039C268.896 205.277 266.584 219.877 258.68 230.873C271.614 244.196 284.119 257.94 295.885 272.248C295.443 270.805 295.082 269.347 294.737 267.971C289.234 246.964 287.933 224.907 289.253 203.286C292.097 159.327 306.305 117.286 320.572 75.9969C320.806 75.4438 320.942 74.8243 321.176 74.2712C322.252 71.0144 327.772 70.2231 329.042 73.7987C335.888 92.5157 342.878 111.545 345.702 131.363C346.527 137.058 347.041 142.897 347.457 148.67C348.258 161.833 347.981 175.114 347.137 188.08C347.113 188.848 347.074 189.534 346.968 190.317C370.964 168.217 401.679 154.341 434.144 150.142C434.225 150.126 434.307 150.111 434.389 150.095C439.516 149.463 441.27 156.933 436.885 158.357C424.587 173.408 416.045 191.308 407.002 208.795C398.539 225.324 389.574 241.439 376.496 254.602C364.126 267.038 347.725 274.724 331.279 280.384C326.124 282.208 315.485 287.701 307.791 287.293C317.341 299.731 326.447 312.507 334.798 325.766C335.649 327.131 342.551 338.545 343.289 339.762C354.053 358.161 363.455 377.411 371.234 397.478C372.539 400.793 373.665 404.056 374.888 407.386C374.777 405.457 374.747 403.512 374.682 401.828C373.786 385.037 374.57 368.182 377.016 351.606C377.312 349.599 377.707 347.658 378.003 345.652C378.016 344.377 378.273 343.056 378.71 341.786C383.667 315.236 392.804 289.76 405.578 266.054C413.672 248.917 423.572 230.589 422.798 211.315C422.767 211.151 422.833 211.054 422.884 210.875C422.837 210.629 422.724 210.481 422.678 210.236C422.282 209.038 422.846 207.999 423.765 207.485C424.749 206.875 426.119 206.955 426.561 208.397C432.191 224.716 436.627 241.43 439.919 258.361C440.167 259.671 440.4 260.899 440.648 262.209C441.315 265.729 441.916 269.347 442.419 272.898C442.481 273.225 442.543 273.553 442.59 273.798C445.949 295.551 448.394 317.391 443.713 339.14C439.952 356.813 433.853 375.099 425.335 392.232C445.932 379.002 468.638 367.068 491.776 359.208C527.563 347.085 569.084 347.361 598.211 374.238C599.23 375.148 599.334 376.146 598.999 377.057C598.664 377.969 597.874 378.712 596.94 379.143C596.196 380.132 594.967 380.789 593.438 380.316C584.33 377.801 574.462 376.193 565.401 378.843C564.517 379.095 563.568 379.444 562.619 379.794C561.44 380.272 560.276 380.831 559.128 381.473C554.077 384.295 549.555 388.12 544.873 391.551C542.787 393.049 540.62 394.562 538.324 395.845C520.696 405.545 502.099 411.018 485.462 422.82C471.075 433.093 457.447 440.678 439.583 442.875C426.014 444.513 412.247 444.662 398.524 443.7C397.431 443.737 396.323 443.693 395.265 443.469C391.826 443.188 388.454 442.809 384.984 442.364C390.276 464.937 393.214 488.041 394.289 511.583C394.972 526.803 395.573 542.039 395.848 557.337C396.744 554.029 397.805 550.69 398.732 547.546C402.712 534.156 408.38 521.634 416.175 510.066C426.586 494.44 439.731 481.179 453.812 468.844C470.255 450.21 493.015 437.672 511.705 421.071C512.989 419.81 514.289 418.631 515.655 417.355C515.788 417.16 515.936 417.047 516.083 416.934C516.216 416.74 516.445 416.611 516.578 416.417C516.776 416.125 517.088 415.981 517.399 415.837C518.995 414.432 521.456 416.256 520.735 418.258C520.415 419.251 520.111 420.327 519.726 421.417C519.301 423.194 518.875 424.971 518.369 426.763C514.784 443.131 508.239 458.618 501.858 474.074C500.237 478.028 498.535 481.997 496.735 485.9C490.752 498.991 483.925 511.648 475.41 523.437C470.252 530.605 464.607 537.441 458.558 543.93C459.324 543.955 460.075 543.897 460.76 543.937C493.976 544.599 524.42 566.817 552.617 582.083C554.596 583.149 553.381 585.669 551.552 585.846C551.471 585.862 551.389 585.877 551.226 585.908L551.062 585.939C550.899 585.97 550.735 586.001 550.557 585.95C536.223 584.001 522.347 585.358 509.142 589.81C503.971 591.553 498.893 593.787 493.908 596.512C493.22 596.897 492.531 597.282 491.827 597.585C478.056 604.858 466.345 608.264 450.172 605.985C435.041 603.848 419.916 599.505 405.616 594.157C401.521 592.643 398.126 591.251 395.812 589.315C395.776 591.357 395.74 593.399 395.703 595.441C395.675 596.634 395.328 605.52 395.253 606.466C394.812 614.861 394.274 623.189 393.394 631.497C392.11 644.376 390.06 657.231 387.131 669.913C395.61 658.384 409.796 653.746 423.525 650.721C437.27 647.778 452.5 646.42 463.323 657.09C463.436 657.238 463.549 657.387 463.564 657.468C463.758 657.601 463.887 657.831 464.015 658.062C464.128 658.21 464.225 658.276 464.338 658.424C464.45 658.573 464.563 658.721 464.578 658.803C464.691 658.951 464.788 659.017 464.901 659.166C465.706 660.285 464.013 661.624 463.208 660.504C463.193 660.422 463.095 660.356 463.08 660.274C457.642 659.269 452.27 659.947 447.084 661.608C442.045 663.156 437.146 665.441 432.36 667.874C428.574 669.779 424.773 671.602 421.169 673.132C409.855 677.735 397.355 680.103 385.789 675.34C379.511 700.275 369.573 724.207 354.75 745.587C352.352 749.01 347.087 745.343 349.404 741.936C362.572 722.989 371.547 702.462 377.562 681.054C374.473 681.724 371.369 682.312 368.28 682.982C359.23 686.138 349.736 682.933 340.698 679.896C328.311 675.713 318.532 668.322 308.715 659.835C307.697 658.926 306.678 658.016 305.675 657.189C296.232 648.886 287.084 640.358 279.797 630.035C275.051 623.302 271.076 616.168 267.412 608.89C263.688 611.122 259.867 613.288 256.194 615.34C252.668 617.28 249.143 619.22 245.633 621.242C232.511 628.816 219.938 637.05 208.503 647.272C206.117 649.421 203.665 651.666 201.458 653.865C196.549 658.781 192.158 664.192 189.451 670.896C186.778 677.338 185.199 683.744 181.324 689.651C180.332 691.111 177.71 690.675 177.451 688.858C174.515 667.11 183.372 643.722 193.066 624.755C197.887 615.362 203.44 606.253 209.413 597.574C211.215 595.028 213.002 592.399 214.805 589.853C194.149 590.713 173.578 591.133 152.926 591.568C142.143 591.83 131.345 592.01 120.495 592.369C117.885 592.44 116.459 589.827 116.694 587.492C116.733 586.807 116.952 586.172 117.267 585.603C121.095 579.45 126.527 575.962 132.92 572.631C141.248 568.339 148.07 562.807 155.577 557.314C170.148 546.667 186.809 539.016 204.367 534.757C234.612 527.331 276.783 527.907 302.366 548.587L302.463 548.653C321.084 549.111 339.356 553.537 356.039 562.08C367.756 568.086 380.805 576.214 389.08 587.283C389.392 567.04 388.79 546.886 388.25 527.059C388.044 519.72 387.675 512.412 387.24 505.201C381.311 512.769 371.524 519.627 366.85 522.208C358.044 527.099 348.053 529.755 337.666 531.214C321.253 533.475 303.807 532.964 288.418 533.929C287.504 534.017 286.742 533.568 286.372 532.96C285.681 531.988 285.678 530.632 287.055 529.862C295.954 525.463 302.902 518.804 309.737 511.996C285.891 512.104 262.157 509.222 239.9 500.294C227.164 495.159 215.409 488.057 204.117 480.274C198.479 476.424 192.973 472.378 187.549 468.318C178.498 461.637 169.446 454.956 160.461 448.177C151.588 441.547 142.009 432.083 130.827 429.792C125.716 428.725 125.888 421.144 131.058 421.183C131.221 421.152 131.318 421.218 131.482 421.187C157.57 423.538 182.494 414.831 208.395 413.062C231.195 411.456 255.962 412.192 278.474 416.662C299.31 420.771 318.983 430.359 337.692 440.214C355.183 449.451 371.463 460.784 384.365 475.725C381.278 452.734 376.232 430.114 368.1 407.739C359.953 385.283 349.677 363.654 337.728 343.02C337.713 342.938 337.6 342.79 337.488 342.642C337.464 343.409 337.343 344.111 337.14 344.828C336.856 345.56 336.474 346.226 336.011 346.907C332.655 351.529 324.333 353.614 319.784 355.07C307.136 359.332 294.153 362.724 280.728 362.892C273.633 362.965 266.398 362.3 259.265 361.277C249.525 359.899 239.922 357.902 230.412 356.396C228.588 356.148 227.908 353.902 228.963 352.77C229.244 352.462 229.621 352.221 230.208 352.195C248.403 349.511 261.461 338.472 278.603 333.359C295.501 328.292 313.54 331.489 330.537 334.545C330.798 334.58 331.253 334.749 331.902 335.05C329.356 331.885 326.76 328.9 325.644 327.924C316.713 320.542 306.922 314.425 296.648 309.333C295.252 308.664 291.433 307.268 290.881 307.033C277.141 301.071 257.758 300.163 242.722 303.436C243.188 304.111 243.359 305.011 243.152 306.153C239.043 326.012 221.475 346.301 204.734 357.105C199.679 360.353 194.029 362.695 188.22 364.644C180.89 367.05 173.288 368.914 166.238 371.013C151.271 375.545 136.222 380.092 121.254 384.623C119.815 385.065 118.644 384.694 117.82 383.917C116.284 382.512 115.87 379.877 116.867 377.992C127.323 359.474 137.712 341.053 149.125 323.118C150.815 320.423 152.536 317.892 154.303 315.607C141.828 315.426 129.545 314.021 117.006 310.376C110.386 308.492 103.786 306.265 97.1865 304.038C89.0737 301.42 81.0426 298.786 72.7271 296.884C68.7559 296.025 64.8004 295.248 60.7279 294.747C58.1994 294.802 55.6244 294.612 52.9056 294.109C47.7442 293.221 48.1302 285.431 53.7549 285.637ZM387.72 597.971C387.565 597.153 386.45 594.396 385.921 593.393C385.44 592.637 384.942 591.798 384.701 591.42C375.657 578.971 359.029 569.824 346.231 564.362C334.082 559.2 321.34 556.271 308.286 555.267C308.616 556.562 308.456 557.949 307.646 559.035C305.453 576.497 294.53 589.421 281.006 599.785C297.369 609.321 316.383 614.539 333.393 623.019C350.387 631.418 363.722 643.733 373.503 659.18C376.01 663.03 378.22 667.106 380.299 671.377C385.197 650.774 387.673 629.443 388.764 607.95C388.838 607.003 388.701 602.704 388.36 600.903C388.174 599.921 387.972 598.857 387.72 597.971ZM260.776 295.097C256.63 293.762 252.403 292.443 248.272 291.19C246.863 293.577 244.349 295.495 242.115 297.106C247.966 295.828 254.35 295.127 260.776 295.097Z" fill="#3B5E82"/>
</g>
<defs>
<filter id="filter0_f" x="0.617188" y="0" width="672.859" height="801.595" filterUnits="userSpaceOnUse" color-interpolation-filters="sRGB">
<feFlood flood-opacity="0" result="BackgroundImageFix"/>
<feBlend mode="normal" in="SourceGraphic" in2="BackgroundImageFix" result="shape"/>
<feGaussianBlur stdDeviation="7.5" result="effect1_foregroundBlur"/>
</filter>
</defs>
</svg>
