<svg width="1068" height="1079" viewBox="0 0 1068 1079" fill="none" xmlns="http://www.w3.org/2000/svg">
<g opacity="0.15" filter="url(#filter0_f)">
<path d="M897.62 602.274C895.217 600.88 892.677 599.633 890.137 598.387C872.758 587.158 867.192 565.189 857.521 547.376C846.941 528.178 831.832 511.375 814.038 498.668C782.849 476.487 744.808 468.111 707.227 473.165C706.591 473.263 705.88 473.292 705.244 473.39C703.897 473.517 702.556 473.787 701.283 473.982C699.515 474.269 698.487 475.237 697.963 476.398C667.178 468.004 635.529 461.141 603.723 462.894C608.406 460.777 613.163 458.729 617.926 456.823C646.07 445.26 674.935 435.731 704.294 427.89C708.342 438.465 718.391 447.866 727.441 453.608C728.464 454.277 729.629 454.94 730.719 455.535C742.071 461.893 754.992 464.769 767.971 463.73C769.034 463.615 769.841 462.442 769.023 461.552C768.205 460.661 767.461 459.838 766.643 458.947C753.266 444.562 738.826 430.292 720.491 423.656C732.255 420.675 744.104 418.047 755.953 415.418C756.526 417.315 758.072 418.603 760.004 418.878C764.456 425.31 773.912 426.908 781.082 428.317C803.743 432.78 826.916 434.019 850.073 433.054C898.875 431.09 946.686 420.273 994.923 412.996C998.389 412.496 1000.06 409.794 999.67 407.106C999.488 406.117 999.091 405.067 998.347 404.244C998.046 403.829 997.603 403.421 997.023 403.16C927.173 356.975 827.668 334.511 761.312 399.825C760.215 400.867 759.833 402.021 759.805 403.09C759.117 403.688 758.571 404.28 758.099 404.94C757.491 405.748 757.025 406.55 756.632 407.42C753.74 408.039 750.915 408.584 748.023 409.202C770.236 391.625 771.916 351.423 776.227 325.556C776.46 324.265 774.938 323.546 773.977 324.44C772.743 325.63 771.51 326.82 770.35 328.078C764.502 331.31 759.329 335.44 754.742 339.972C752.485 342.272 750.37 344.566 748.34 347.212L748.272 347.286C743.934 352.732 740.256 358.649 737.014 364.833C736.486 365.851 735.957 366.869 735.502 367.956C728.461 382.409 721.5 398.852 722.574 415.173C700.802 420.564 679.2 426.659 657.996 433.805C659.372 432.609 660.674 431.345 661.907 430.155C680.973 412.14 696.403 390.363 708.868 367.358C734.047 320.484 746.352 268.311 758.116 216.873C758.23 216.156 758.486 215.434 758.6 214.718C759.579 210.692 754.426 206.353 750.84 209.206C731.86 224.016 712.534 239.053 696.974 257.562C692.489 262.872 688.23 268.529 684.114 274.179C674.881 287.159 666.676 300.95 659.255 314.779C658.789 315.581 658.391 316.309 657.999 317.179C647.528 279.192 624.912 245.339 594.321 220.287C594.247 220.219 594.173 220.151 594.099 220.083C589.248 216.158 582.676 222.694 586.261 226.956C589.247 250.242 586.562 274.049 584.655 297.752C582.766 320.103 581.656 342.35 586.648 364.2C591.38 384.852 603.279 403.212 616.519 419.524C620.637 424.689 628.031 437.118 636.178 441.617C618.44 448.262 600.941 455.538 583.908 463.791C582.163 464.647 567.795 471.934 566.26 472.71C543.469 484.69 521.529 498.413 500.731 514.009C497.275 516.573 494.035 519.198 490.653 521.83C492 519.923 493.274 517.949 494.417 516.265C506.066 499.626 516.034 481.849 524.122 463.295C525.1 461.049 525.936 458.808 526.914 456.561C527.716 455.247 528.296 453.729 528.66 452.148C540.548 421.767 547.464 389.814 549.521 357.352C552.177 334.613 553.744 309.501 566.854 290.24C566.991 290.092 566.985 289.95 567.048 289.734C567.253 289.512 567.463 289.432 567.667 289.21C568.838 288.236 568.924 286.81 568.311 285.697C567.692 284.442 566.237 283.648 564.862 284.844C548.662 297.972 533.433 312.269 519.238 327.519C518.147 328.703 517.124 329.813 516.032 330.997C513.099 334.179 510.171 337.503 507.385 340.822C507.112 341.118 506.84 341.414 506.635 341.636C489.29 361.785 472.826 382.608 463.725 407.892C456.284 428.411 450.849 451.052 448.631 474.057C435.974 447.332 420.328 420.589 401.635 397.744C372.701 362.448 329.966 336.194 282.934 345.128C281.309 345.41 280.564 346.366 280.325 347.514C280.086 348.663 280.421 349.929 281.102 350.968C281.232 352.457 282.073 353.916 283.942 354.408C294.886 357.652 306.027 362.31 313.622 370.817C314.366 371.64 315.116 372.605 315.866 373.57C316.769 374.813 317.604 376.13 318.37 377.521C321.743 383.642 323.934 390.453 326.54 396.962C327.721 399.83 328.976 402.766 330.509 405.549C342.378 426.757 357.942 444.252 367.452 466.982C375.634 486.707 384.754 503.19 401.66 516.859C414.522 527.21 428.537 536.16 443.218 543.945C444.315 544.682 445.479 545.345 446.707 545.792C450.411 547.701 454.11 549.468 457.95 551.229C438.1 570.984 420.323 592.788 404.176 616.231C393.748 631.395 383.395 646.627 373.337 662.132C374.532 658.168 375.579 654.069 376.637 650.253C381.115 633.985 383.309 617.528 382.713 600.689C382.028 578.018 377.029 556.026 370.479 534.383C365.535 504.775 350.219 477.378 341.671 448.418C341.161 446.304 340.582 444.265 339.997 442.083C339.986 441.799 339.907 441.589 339.827 441.379C339.816 441.095 339.663 440.816 339.651 440.532C339.634 440.106 339.407 439.76 339.18 439.413C338.442 436.954 334.754 437.25 334.213 439.763C333.906 440.985 333.531 442.282 333.229 443.646C332.529 445.739 331.829 447.832 331.204 449.993C324.417 469.061 321.228 489.118 317.891 509.038C317.025 514.126 316.233 519.283 315.584 524.433C313.35 541.675 312.258 559.011 313.451 576.537C314.157 587.181 315.574 597.796 317.628 608.312C316.826 607.848 316.094 607.309 315.366 606.912C280.898 586.362 235.493 589.679 196.835 587.306C194.125 587.134 193.76 590.494 195.521 591.843C195.595 591.911 195.669 591.979 195.816 592.116L195.964 592.252C196.112 592.388 196.259 592.524 196.475 592.586C212.412 599.749 225.768 610.008 236.458 623.011C240.644 628.102 244.421 633.637 247.789 639.616C248.249 640.45 248.709 641.285 249.237 642.046C258.704 658.302 268.531 669.277 286.564 677.277C303.439 684.757 321.718 689.972 339.793 693.63C344.958 694.695 349.327 695.438 352.936 694.932C351.668 697.048 350.4 699.164 349.132 701.281C348.399 702.521 343.076 711.851 342.547 712.869C337.635 721.755 332.864 730.635 328.456 739.714C321.541 753.735 315.427 768.221 310.325 783.092C309.001 765.856 297.425 752.037 285.286 740.162C273.078 728.361 258.336 717.234 240.423 721.255C240.213 721.334 240.003 721.414 239.934 721.488C239.65 721.5 239.372 721.654 239.093 721.808C238.883 721.888 238.741 721.894 238.531 721.974C238.32 722.054 238.11 722.134 238.042 722.208C237.832 722.288 237.69 722.294 237.479 722.374C235.939 723.007 236.819 725.461 238.359 724.827C238.427 724.753 238.569 724.747 238.638 724.673C244.854 727.118 249.927 731.247 254.181 736.264C258.356 741.071 261.917 746.544 265.268 752.097C267.931 756.469 270.663 760.766 273.378 764.638C282.034 776.587 293.332 787.003 308.231 789.512C298.731 819.083 293.622 849.964 295.151 881.351C295.422 886.392 303.162 885.998 302.964 881.026C301.577 853.19 305.496 826.414 313.012 800.627C315.75 803.288 318.556 805.875 321.294 808.536C328.553 817.555 340.332 820.337 351.537 823C366.907 826.629 381.654 825.302 397.14 822.878C398.765 822.597 400.39 822.315 401.948 822.108C416.933 819.633 431.76 816.738 445.827 810.815C454.994 806.946 463.628 802.174 472.034 797.056C474.425 801.724 476.957 806.386 479.411 810.837C481.784 815.079 484.158 819.321 486.464 823.636C495.073 839.785 502.698 856.26 507.886 874.047C508.958 877.773 510.037 881.642 510.893 885.306C512.783 893.482 513.825 901.835 512.316 910.436C510.938 918.748 508.463 926.323 508.659 934.853C508.744 936.984 511.71 938.213 513.137 936.517C530.044 916.101 535.913 886.469 538.099 860.833C539.161 848.122 539.29 835.238 538.715 822.525C538.495 818.763 538.343 814.927 538.123 811.164C558.745 825.247 579.561 838.824 600.451 852.469C611.336 859.629 622.29 866.715 633.18 874.017C635.811 875.757 638.943 873.99 640.194 871.447C640.592 870.719 640.774 869.929 640.814 869.144C640.823 860.392 637.484 853.344 633.06 845.844C627.267 836.124 623.81 826.092 619.626 815.664C611.496 795.439 599.308 776.949 584.033 761.362C557.778 734.421 514.185 708.061 474.746 712.907L474.604 712.913C455.225 701.482 433.668 694.34 411.109 692.435C395.261 691.103 376.69 691.095 361.135 697.151C373.752 676.203 387.25 655.93 400.475 635.953C405.376 628.562 410.425 621.307 415.479 614.194C416.719 625.741 422.369 639.025 425.509 644.658C431.409 655.299 439.953 664.406 449.667 672.54C465.045 685.347 483.254 695.973 498.411 706.797C499.291 707.472 500.36 707.499 501.127 707.111C502.457 706.557 503.327 705.169 502.407 703.5C496.097 693.303 493.232 682.037 490.576 670.692C514.949 686.042 541.118 698.257 569.637 703.329C585.974 706.206 602.561 706.439 619.109 705.678C627.349 705.335 635.577 704.707 643.732 704.011C657.279 702.948 670.827 701.885 684.369 700.68C697.701 699.555 713.568 695.976 726.494 700.774C732.414 702.946 737.083 695.067 731.759 691.802C731.611 691.666 731.469 691.672 731.322 691.536C703.079 677.272 683.097 652.418 657.679 634.052C635.336 617.835 609.48 602.761 583.548 592.955C559.566 583.851 533.273 581.105 507.799 579.249C483.967 577.539 460.037 578.75 437.265 585.819C455.122 564.226 474.751 544.266 497.385 526.53C520.088 508.719 544.443 493.117 569.877 479.604C569.946 479.53 570.156 479.45 570.366 479.37C569.9 480.172 569.576 480.968 569.325 481.833C569.149 482.765 569.114 483.691 569.154 484.686C569.64 491.568 576.837 499.024 580.569 503.422C590.81 515.874 601.949 527.649 615.601 536.401C622.828 541.01 630.668 544.952 638.634 548.462C649.497 553.275 660.617 557.365 671.327 561.9C673.355 562.811 675.487 560.944 675.129 559.108C675.039 558.614 674.806 558.126 674.221 557.723C657.286 543.344 650.957 523.684 636.654 507.488C622.573 491.495 602.039 483.244 582.665 475.513C582.375 475.382 581.801 475.264 580.943 475.157C585.575 473.541 590.144 472.141 591.911 471.854C605.783 469.995 619.728 469.982 633.514 471.329C635.372 471.536 640.179 472.545 640.895 472.658C658.788 475.327 679.236 486.785 692.556 499.749C691.647 500.143 690.897 500.957 690.379 502.259C681.898 525.24 686.938 557.264 697.193 579.037C700.299 585.596 704.593 591.608 709.302 597.318C715.277 604.469 721.878 611.238 727.763 617.895C740.208 632.105 752.727 646.384 765.172 660.594C766.365 661.968 767.803 662.335 769.144 662.065C771.616 661.606 773.725 659.17 773.908 656.601C775.025 630.938 776.148 605.417 775.913 579.74C775.903 575.898 775.757 572.204 775.406 568.732C788.308 576.519 801.796 582.93 816.978 587.207C824.967 589.506 833.155 591.442 841.343 593.377C851.332 595.878 861.247 598.311 870.986 601.676C875.605 603.334 880.156 605.065 884.651 607.155C887.207 608.827 889.968 610.278 893.076 611.5C898.934 613.888 903.517 605.657 897.62 602.274ZM355.698 708.977C356.38 708.237 359.285 706.123 360.467 705.433C361.445 704.966 362.491 704.424 362.979 704.19C380.206 697.21 403.095 698.462 419.704 701.042C435.455 703.516 450.387 708.657 464.409 715.971C463.243 717.087 462.521 718.611 462.657 720.242C453.745 739.542 456.682 759.77 463.92 779.036C441.054 778.353 418.229 771.549 395.375 769.371C372.589 767.119 351.05 771.219 331.152 780.801C326.122 783.145 321.251 785.91 316.392 788.959C324.538 764.711 335.633 741.264 348.251 718.537C348.78 717.519 351.668 713.201 353.169 711.573C353.987 710.685 354.874 709.723 355.698 708.977ZM679.38 479.663C684.483 480.944 689.659 482.294 694.693 483.65C694.612 486.997 695.964 490.57 697.224 493.648C692.043 488.599 685.948 483.801 679.38 479.663Z" fill="#3B5E82"/>
</g>
<defs>
<filter id="filter0_f" x="0" y="0" width="1067.3" height="1078.52" filterUnits="userSpaceOnUse" color-interpolation-filters="sRGB">
<feFlood flood-opacity="0" result="BackgroundImageFix"/>
<feBlend mode="normal" in="SourceGraphic" in2="BackgroundImageFix" result="shape"/>
<feGaussianBlur stdDeviation="10" result="effect1_foregroundBlur"/>
</filter>
</defs>
</svg>
