<svg width="29" height="17" viewBox="0 0 29 17" fill="none" xmlns="http://www.w3.org/2000/svg">
<path fill-rule="evenodd" clip-rule="evenodd" d="M14.2221 15.9006H15.9221C15.9221 15.9006 16.4221 15.8006 16.7221 15.6006C16.9221 15.3006 16.9221 14.9006 16.9221 14.9006C16.9221 14.9006 16.9221 12.7006 17.9221 12.3006C18.9221 12.0006 20.2221 14.5006 21.6221 15.4006C22.7221 16.1006 23.5221 16.0006 23.5221 16.0006L27.2221 15.9006C27.2221 15.9006 29.2221 15.8006 28.2221 14.2006C28.1221 14.1006 27.7221 13.1006 25.4221 11.0006C23.1221 8.80059 23.4221 9.20059 26.2221 5.40059C27.9221 3.10059 28.6221 1.70059 28.4221 1.10059C28.2221 0.500586 26.9221 0.700586 26.9221 0.700586H22.7221C22.7221 0.700586 22.4221 0.700585 22.2221 0.800585C22.0221 0.900585 21.8221 1.30059 21.8221 1.30059C21.8221 1.30059 21.1221 3.10059 20.2221 4.60059C18.3221 7.80059 17.6221 8.00059 17.3221 7.80059C16.6221 7.30059 16.8221 5.90059 16.8221 5.00059C16.8221 1.90059 17.3221 0.600585 15.9221 0.300585C15.4221 0.200585 15.1221 0.100586 13.9221 0.100586C12.4221 0.100586 11.1221 0.100586 10.4221 0.500586C9.92209 0.700586 9.62209 1.30059 9.82209 1.30059C10.1221 1.30059 10.7221 1.50059 11.0221 1.90059C11.4221 2.50059 11.4221 3.80059 11.4221 3.80059C11.4221 3.80059 11.6221 7.40059 10.8221 7.90059C10.2221 8.20059 9.52209 7.60059 7.82209 4.70059C6.92209 3.20059 6.32209 1.60059 6.32209 1.60059C6.32209 1.60059 6.22209 1.30059 6.02209 1.10059C5.72209 0.900586 5.42209 0.800585 5.42209 0.800585H1.42209C1.42209 0.800585 0.822092 0.800586 0.622092 1.10059C0.422092 1.30059 0.622092 1.80059 0.622092 1.80059C0.622092 1.80059 3.72209 9.10059 7.32209 12.8006C10.5221 16.2006 14.2221 15.9006 14.2221 15.9006Z" fill="#8D9BB2"/>
</svg>
